#include "hUGEDriver.h"
#include <stddef.h>

static const unsigned char order_cnt = 34;

static const unsigned char P0[] = {
    DN(D_5,13,0xC01),
    DN(___,0,0x000),
    DN(___,0,0x000),
    DN(___,0,0x000),
    DN(___,0,0xC02),
    DN(___,0,0x000),
    DN(___,0,0xC03),
    DN(___,0,0x000),
    DN(___,0,0xC04),
    DN(___,0,0xC05),
    DN(___,0,0xC06),
    DN(___,0,0xC07),
    DN(___,0,0xC08),
    DN(___,0,0xC0A),
    DN(___,0,0xC0C),
    DN(___,0,0xC0F),
    DN(___,0,0x000),
    DN(___,0,0x000),
    DN(___,0,0x000),
    DN(___,0,0x000),
    DN(___,0,0x000),
    DN(___,0,0x000),
    DN(___,0,0x000),
    DN(___,0,0x000),
    DN(___,0,0x000),
    DN(___,0,0x000),
    DN(___,0,0x000),
    DN(___,0,0x000),
    DN(___,0,0x000),
    DN(___,0,0x000),
    DN(___,0,0x000),
    DN(___,0,0x000),
    DN(___,0,0x000),
    DN(___,0,0x000),
    DN(___,0,0x000),
    DN(___,0,0x000),
    DN(___,0,0x000),
    DN(___,0,0x000),
    DN(___,0,0x000),
    DN(___,0,0x000),
    DN(___,0,0x000),
    DN(___,0,0x000),
    DN(___,0,0x000),
    DN(___,0,0x000),
    DN(___,0,0x000),
    DN(___,0,0x000),
    DN(___,0,0x000),
    DN(___,0,0x000),
    DN(___,0,0x000),
    DN(___,0,0x000),
    DN(___,0,0x000),
    DN(___,0,0x000),
    DN(___,0,0x000),
    DN(___,0,0x000),
    DN(___,0,0x000),
    DN(___,0,0x000),
    DN(___,0,0x000),
    DN(___,0,0x000),
    DN(___,0,0x000),
    DN(___,0,0x000),
    DN(___,0,0x000),
    DN(___,0,0x000),
    DN(___,0,0x000),
    DN(___,0,0x000),
};
static const unsigned char P1[] = {
    DN(D_4,7,0xC01),
    DN(___,0,0x000),
    DN(___,0,0x000),
    DN(___,0,0x000),
    DN(___,0,0xC02),
    DN(___,0,0x000),
    DN(___,0,0xC03),
    DN(___,0,0x000),
    DN(___,0,0xC04),
    DN(___,0,0xC05),
    DN(___,0,0xC06),
    DN(___,0,0xC07),
    DN(___,0,0xC08),
    DN(___,0,0xC0A),
    DN(___,0,0xC0C),
    DN(___,0,0xC0F),
    DN(___,0,0x000),
    DN(___,0,0x000),
    DN(___,0,0x000),
    DN(___,0,0x000),
    DN(___,0,0x000),
    DN(___,0,0x000),
    DN(___,0,0x000),
    DN(___,0,0x000),
    DN(___,0,0x000),
    DN(___,0,0x000),
    DN(___,0,0x000),
    DN(___,0,0x000),
    DN(___,0,0x000),
    DN(___,0,0x000),
    DN(___,0,0x000),
    DN(___,0,0x000),
    DN(___,0,0x000),
    DN(___,0,0x000),
    DN(___,0,0x000),
    DN(___,0,0x000),
    DN(___,0,0x000),
    DN(___,0,0x000),
    DN(___,0,0x000),
    DN(___,0,0x000),
    DN(___,0,0x000),
    DN(___,0,0x000),
    DN(___,0,0x000),
    DN(___,0,0x000),
    DN(___,0,0x000),
    DN(___,0,0x000),
    DN(___,0,0x000),
    DN(___,0,0x000),
    DN(___,0,0x000),
    DN(___,0,0x000),
    DN(___,0,0x000),
    DN(___,0,0x000),
    DN(___,0,0x000),
    DN(___,0,0x000),
    DN(___,0,0x000),
    DN(___,0,0x000),
    DN(___,0,0x000),
    DN(___,0,0x000),
    DN(___,0,0x000),
    DN(___,0,0x000),
    DN(___,0,0x000),
    DN(___,0,0x000),
    DN(___,0,0x000),
    DN(___,0,0x000),
};
static const unsigned char P2[] = {
    DN(___,0,0xC00),
    DN(___,0,0x000),
    DN(___,0,0x000),
    DN(___,0,0x000),
    DN(___,0,0x000),
    DN(___,0,0x000),
    DN(___,0,0x000),
    DN(___,0,0x000),
    DN(___,0,0x000),
    DN(___,0,0x000),
    DN(___,0,0x000),
    DN(___,0,0x000),
    DN(___,0,0x000),
    DN(___,0,0x000),
    DN(___,0,0x000),
    DN(___,0,0xD01),
    DN(___,0,0x000),
    DN(___,0,0x000),
    DN(___,0,0x000),
    DN(___,0,0x000),
    DN(___,0,0x000),
    DN(___,0,0x000),
    DN(___,0,0x000),
    DN(___,0,0x000),
    DN(___,0,0x000),
    DN(___,0,0x000),
    DN(___,0,0x000),
    DN(___,0,0x000),
    DN(___,0,0x000),
    DN(___,0,0x000),
    DN(___,0,0x000),
    DN(___,0,0x000),
    DN(___,0,0x000),
    DN(___,0,0x000),
    DN(___,0,0x000),
    DN(___,0,0x000),
    DN(___,0,0x000),
    DN(___,0,0x000),
    DN(___,0,0x000),
    DN(___,0,0x000),
    DN(___,0,0x000),
    DN(___,0,0x000),
    DN(___,0,0x000),
    DN(___,0,0x000),
    DN(___,0,0x000),
    DN(___,0,0x000),
    DN(___,0,0x000),
    DN(___,0,0x000),
    DN(___,0,0x000),
    DN(___,0,0x000),
    DN(___,0,0x000),
    DN(___,0,0x000),
    DN(___,0,0x000),
    DN(___,0,0x000),
    DN(___,0,0x000),
    DN(___,0,0x000),
    DN(___,0,0x000),
    DN(___,0,0x000),
    DN(___,0,0x000),
    DN(___,0,0x000),
    DN(___,0,0x000),
    DN(___,0,0x000),
    DN(___,0,0x000),
    DN(___,0,0x000),
};
static const unsigned char P3[] = {
    DN(___,0,0xC00),
    DN(___,0,0x000),
    DN(___,0,0x000),
    DN(___,0,0x000),
    DN(___,0,0x000),
    DN(___,0,0x000),
    DN(___,0,0x000),
    DN(___,0,0x000),
    DN(___,0,0x000),
    DN(___,0,0x000),
    DN(___,0,0x000),
    DN(___,0,0x000),
    DN(___,0,0x000),
    DN(___,0,0x000),
    DN(___,0,0x000),
    DN(___,0,0x000),
    DN(___,0,0x000),
    DN(___,0,0x000),
    DN(___,0,0x000),
    DN(___,0,0x000),
    DN(___,0,0x000),
    DN(___,0,0x000),
    DN(___,0,0x000),
    DN(___,0,0x000),
    DN(___,0,0x000),
    DN(___,0,0x000),
    DN(___,0,0x000),
    DN(___,0,0x000),
    DN(___,0,0x000),
    DN(___,0,0x000),
    DN(___,0,0x000),
    DN(___,0,0x000),
    DN(___,0,0x000),
    DN(___,0,0x000),
    DN(___,0,0x000),
    DN(___,0,0x000),
    DN(___,0,0x000),
    DN(___,0,0x000),
    DN(___,0,0x000),
    DN(___,0,0x000),
    DN(___,0,0x000),
    DN(___,0,0x000),
    DN(___,0,0x000),
    DN(___,0,0x000),
    DN(___,0,0x000),
    DN(___,0,0x000),
    DN(___,0,0x000),
    DN(___,0,0x000),
    DN(___,0,0x000),
    DN(___,0,0x000),
    DN(___,0,0x000),
    DN(___,0,0x000),
    DN(___,0,0x000),
    DN(___,0,0x000),
    DN(___,0,0x000),
    DN(___,0,0x000),
    DN(___,0,0x000),
    DN(___,0,0x000),
    DN(___,0,0x000),
    DN(___,0,0x000),
    DN(___,0,0x000),
    DN(___,0,0x000),
    DN(___,0,0x000),
    DN(___,0,0x000),
};
static const unsigned char P4[] = {
    DN(E_5,11,0x234),
    DN(___,0,0x000),
    DN(___,0,0x000),
    DN(___,0,0x000),
    DN(___,0,0x000),
    DN(___,0,0x000),
    DN(___,0,0x000),
    DN(___,0,0x000),
    DN(___,0,0x000),
    DN(___,0,0x000),
    DN(___,0,0x000),
    DN(___,0,0x000),
    DN(___,0,0x000),
    DN(C_6,9,0xC01),
    DN(Fs3,2,0x269),
    DN(D_4,15,0x000),
    DN(Fs3,2,0x269),
    DN(D_6,9,0xC01),
    DN(___,0,0xC02),
    DN(Fs3,2,0x269),
    DN(D_4,15,0x000),
    DN(___,0,0x000),
    DN(Fs3,2,0x269),
    DN(D_4,15,0x000),
    DN(___,0,0x000),
    DN(___,0,0x000),
    DN(___,0,0x000),
    DN(___,0,0x000),
    DN(___,0,0x000),
    DN(G_5,9,0xC01),
    DN(Fs3,2,0x269),
    DN(D_4,15,0x000),
    DN(Fs3,2,0x269),
    DN(D_4,15,0x000),
    DN(___,0,0x000),
    DN(___,0,0x000),
    DN(___,0,0x000),
    DN(___,0,0x000),
    DN(___,0,0x000),
    DN(___,0,0x000),
    DN(___,0,0x000),
    DN(___,0,0x000),
    DN(___,0,0x000),
    DN(___,0,0x000),
    DN(___,0,0x000),
    DN(C_6,9,0xC01),
    DN(Fs3,2,0x269),
    DN(D_4,15,0x000),
    DN(Fs3,2,0x269),
    DN(D_6,9,0xC01),
    DN(___,0,0xC02),
    DN(Fs3,2,0x269),
    DN(D_4,15,0x000),
    DN(F_6,9,0xC01),
    DN(Fs3,2,0x269),
    DN(D_4,15,0x000),
    DN(___,0,0x000),
    DN(___,0,0x000),
    DN(___,0,0x000),
    DN(___,0,0x000),
    DN(___,0,0x000),
    DN(___,0,0x000),
    DN(___,0,0x000),
    DN(___,0,0x000),
};
static const unsigned char P5[] = {
    DN(A_5,3,0x000),
    DN(___,0,0x000),
    DN(___,0,0x000),
    DN(___,0,0x000),
    DN(___,0,0x000),
    DN(___,0,0x000),
    DN(___,0,0x000),
    DN(___,0,0x000),
    DN(C_6,9,0xC05),
    DN(___,0,0xC06),
    DN(___,0,0x000),
    DN(___,0,0x000),
    DN(D_6,9,0xC05),
    DN(___,0,0xC06),
    DN(___,0,0x000),
    DN(___,0,0x000),
    DN(___,0,0x000),
    DN(___,0,0xC04),
    DN(___,0,0x000),
    DN(___,0,0x000),
    DN(___,0,0x000),
    DN(___,0,0x000),
    DN(C_6,3,0x000),
    DN(___,0,0x000),
    DN(G_5,9,0xC05),
    DN(___,0,0xC06),
    DN(___,0,0x000),
    DN(___,0,0x000),
    DN(A_5,9,0xC05),
    DN(___,0,0xC06),
    DN(___,0,0x000),
    DN(___,0,0x000),
    DN(A_5,3,0x000),
    DN(___,0,0x000),
    DN(___,0,0x000),
    DN(___,0,0x000),
    DN(___,0,0x000),
    DN(___,0,0x000),
    DN(___,0,0x000),
    DN(___,0,0x000),
    DN(C_6,9,0xC05),
    DN(___,0,0xC06),
    DN(___,0,0x000),
    DN(___,0,0x000),
    DN(D_6,9,0xC05),
    DN(___,0,0xC06),
    DN(___,0,0x000),
    DN(___,0,0x000),
    DN(___,0,0x000),
    DN(___,0,0xC04),
    DN(___,0,0x000),
    DN(___,0,0x000),
    DN(___,0,0x000),
    DN(F_6,9,0xC01),
    DN(___,0,0x000),
    DN(___,0,0xC02),
    DN(___,0,0x000),
    DN(___,0,0xC03),
    DN(___,0,0x000),
    DN(___,0,0xC04),
    DN(___,0,0xC05),
    DN(___,0,0xC06),
    DN(___,0,0x000),
    DN(___,0,0x000),
};
static const unsigned char P6[] = {
    DN(D_3,7,0x000),
    DN(___,0,0x000),
    DN(D_3,7,0x000),
    DN(___,0,0x000),
    DN(D_3,7,0x000),
    DN(___,0,0x000),
    DN(D_3,7,0x000),
    DN(___,0,0x000),
    DN(D_3,7,0x000),
    DN(___,0,0x000),
    DN(D_3,7,0x000),
    DN(___,0,0x000),
    DN(D_3,7,0x000),
    DN(___,0,0x000),
    DN(D_3,7,0x000),
    DN(___,0,0x000),
    DN(A_3,7,0x000),
    DN(___,0,0x000),
    DN(A_3,7,0x000),
    DN(___,0,0x000),
    DN(A_3,7,0x000),
    DN(___,0,0x000),
    DN(A_3,7,0x000),
    DN(___,0,0x000),
    DN(A_3,7,0x000),
    DN(___,0,0x000),
    DN(A_3,7,0x000),
    DN(___,0,0x000),
    DN(A_3,7,0x000),
    DN(___,0,0x000),
    DN(A_3,7,0x000),
    DN(___,0,0x000),
    DN(D_3,7,0x000),
    DN(___,0,0x000),
    DN(D_3,7,0x000),
    DN(___,0,0x000),
    DN(D_3,7,0x000),
    DN(___,0,0x000),
    DN(D_3,7,0x000),
    DN(___,0,0x000),
    DN(D_3,7,0x000),
    DN(___,0,0x000),
    DN(D_3,7,0x000),
    DN(___,0,0x000),
    DN(D_3,7,0x000),
    DN(___,0,0x000),
    DN(D_3,7,0x000),
    DN(___,0,0x000),
    DN(G_3,7,0x000),
    DN(___,0,0x000),
    DN(G_3,7,0x000),
    DN(___,0,0x000),
    DN(G_3,7,0x000),
    DN(___,0,0x000),
    DN(G_3,7,0x000),
    DN(___,0,0x000),
    DN(F_3,7,0x000),
    DN(___,0,0x000),
    DN(F_3,7,0x000),
    DN(___,0,0x000),
    DN(F_3,7,0x000),
    DN(___,0,0x000),
    DN(F_3,7,0x000),
    DN(___,0,0x000),
};
static const unsigned char P7[] = {
    DN(Fs5,5,0x000),
    DN(___,0,0x000),
    DN(___,0,0x000),
    DN(___,0,0x000),
    DN(Gs5,2,0x000),
    DN(___,0,0x000),
    DN(As5,2,0x000),
    DN(___,0,0x000),
    DN(Gs5,2,0x000),
    DN(___,0,0x000),
    DN(As5,2,0x000),
    DN(___,0,0x000),
    DN(Gs5,2,0x000),
    DN(___,0,0x000),
    DN(As5,2,0x000),
    DN(___,0,0x000),
    DN(G_5,3,0x000),
    DN(___,0,0x000),
    DN(As5,2,0x000),
    DN(___,0,0x000),
    DN(Gs5,2,0x000),
    DN(___,0,0x000),
    DN(As5,2,0x000),
    DN(___,0,0x000),
    DN(Gs5,2,0x000),
    DN(___,0,0x000),
    DN(As5,2,0x000),
    DN(___,0,0x000),
    DN(Gs5,2,0x000),
    DN(___,0,0x000),
    DN(As5,2,0x000),
    DN(___,0,0x000),
    DN(G_5,3,0x000),
    DN(___,0,0x000),
    DN(As5,2,0x000),
    DN(___,0,0x000),
    DN(Gs5,2,0x000),
    DN(___,0,0x000),
    DN(As5,2,0x000),
    DN(___,0,0x000),
    DN(Gs5,2,0x000),
    DN(___,0,0x000),
    DN(As5,2,0x000),
    DN(___,0,0x000),
    DN(Gs5,2,0x000),
    DN(___,0,0x000),
    DN(As5,2,0x000),
    DN(___,0,0x000),
    DN(G_5,3,0x000),
    DN(___,0,0x000),
    DN(As5,2,0x000),
    DN(___,0,0x000),
    DN(Gs5,2,0x000),
    DN(___,0,0x000),
    DN(As5,2,0x000),
    DN(___,0,0x000),
    DN(Gs5,2,0x000),
    DN(___,0,0x000),
    DN(As5,2,0x000),
    DN(___,0,0x000),
    DN(Gs5,2,0xC01),
    DN(___,0,0xC04),
    DN(___,0,0xC07),
    DN(___,0,0xC09),
};
static const unsigned char P8[] = {
    DN(E_5,11,0x234),
    DN(___,0,0x000),
    DN(D_5,9,0xC07),
    DN(D_4,15,0x000),
    DN(A_4,9,0xC07),
    DN(D_4,15,0x000),
    DN(D_4,9,0xC07),
    DN(D_4,15,0x000),
    DN(C_5,9,0xC07),
    DN(D_4,15,0x000),
    DN(D_4,9,0xC07),
    DN(D_4,15,0x000),
    DN(C_5,9,0xC07),
    DN(C_7,9,0xC01),
    DN(Fs3,2,0x269),
    DN(D_4,15,0x000),
    DN(Fs3,2,0x269),
    DN(D_7,9,0xC01),
    DN(___,0,0xC02),
    DN(Fs3,2,0x269),
    DN(D_4,15,0x000),
    DN(___,0,0x000),
    DN(Fs3,2,0x269),
    DN(D_4,15,0x000),
    DN(___,0,0x000),
    DN(___,0,0x000),
    DN(___,0,0x000),
    DN(___,0,0x000),
    DN(___,0,0x000),
    DN(G_6,9,0xC01),
    DN(Fs3,2,0x269),
    DN(D_4,15,0x000),
    DN(Fs3,2,0x269),
    DN(D_4,15,0x000),
    DN(___,0,0x000),
    DN(___,0,0x000),
    DN(___,0,0x000),
    DN(___,0,0x000),
    DN(___,0,0x000),
    DN(___,0,0x000),
    DN(___,0,0x000),
    DN(___,0,0x000),
    DN(___,0,0x000),
    DN(___,0,0x000),
    DN(___,0,0x000),
    DN(C_7,9,0xC01),
    DN(Fs3,2,0x269),
    DN(D_4,15,0x000),
    DN(Fs3,2,0x269),
    DN(D_7,9,0xC01),
    DN(___,0,0xC02),
    DN(Fs3,2,0x269),
    DN(F_7,2,0xC07),
    DN(F_6,9,0xC01),
    DN(Fs3,2,0x269),
    DN(D_4,15,0x000),
    DN(___,0,0x000),
    DN(___,0,0x000),
    DN(___,0,0x000),
    DN(___,0,0x000),
    DN(___,0,0x000),
    DN(___,0,0x000),
    DN(___,0,0x000),
    DN(___,0,0x000),
};
static const unsigned char P9[] = {
    DN(A_5,3,0x000),
    DN(___,0,0x000),
    DN(___,0,0x000),
    DN(___,0,0x000),
    DN(___,0,0x000),
    DN(___,0,0x000),
    DN(___,0,0x000),
    DN(___,0,0x000),
    DN(C_7,9,0xC05),
    DN(___,0,0xC06),
    DN(___,0,0x000),
    DN(___,0,0x000),
    DN(D_7,9,0xC05),
    DN(___,0,0xC06),
    DN(___,0,0x000),
    DN(___,0,0x000),
    DN(___,0,0x000),
    DN(___,0,0xC04),
    DN(___,0,0x000),
    DN(___,0,0x000),
    DN(___,0,0x000),
    DN(___,0,0x000),
    DN(C_6,3,0x000),
    DN(___,0,0x000),
    DN(G_6,9,0xC05),
    DN(___,0,0xC06),
    DN(___,0,0x000),
    DN(___,0,0x000),
    DN(A_6,9,0xC05),
    DN(___,0,0xC06),
    DN(___,0,0x000),
    DN(___,0,0x000),
    DN(A_5,3,0x000),
    DN(___,0,0x000),
    DN(___,0,0x000),
    DN(___,0,0x000),
    DN(___,0,0x000),
    DN(___,0,0x000),
    DN(___,0,0x000),
    DN(___,0,0x000),
    DN(C_7,9,0xC05),
    DN(___,0,0xC06),
    DN(___,0,0x000),
    DN(___,0,0x000),
    DN(D_7,9,0xC05),
    DN(___,0,0xC06),
    DN(A_7,2,0xC07),
    DN(___,0,0x000),
    DN(G_7,2,0xC07),
    DN(___,0,0x000),
    DN(F_7,2,0xC07),
    DN(___,0,0x000),
    DN(___,0,0x000),
    DN(F_6,9,0xC01),
    DN(___,0,0x000),
    DN(___,0,0xC02),
    DN(___,0,0x000),
    DN(___,0,0xC03),
    DN(___,0,0x000),
    DN(___,0,0xC04),
    DN(G_6,9,0xC05),
    DN(___,0,0xC06),
    DN(___,0,0x000),
    DN(___,0,0x000),
};
static const unsigned char P10[] = {
    DN(D_3,7,0x000),
    DN(___,0,0x000),
    DN(D_3,7,0x000),
    DN(___,0,0x000),
    DN(D_3,7,0x000),
    DN(___,0,0x000),
    DN(D_3,7,0x000),
    DN(___,0,0x000),
    DN(D_3,7,0x000),
    DN(___,0,0x000),
    DN(D_3,7,0x000),
    DN(___,0,0x000),
    DN(D_3,7,0x000),
    DN(___,0,0x000),
    DN(D_3,7,0x000),
    DN(___,0,0x000),
    DN(A_3,7,0x000),
    DN(___,0,0x000),
    DN(A_3,7,0x000),
    DN(___,0,0x000),
    DN(A_3,7,0x000),
    DN(___,0,0x000),
    DN(A_3,7,0x000),
    DN(___,0,0x000),
    DN(A_3,7,0x000),
    DN(___,0,0x000),
    DN(A_3,7,0x000),
    DN(___,0,0x000),
    DN(A_3,7,0x000),
    DN(___,0,0x000),
    DN(A_3,7,0x000),
    DN(___,0,0x000),
    DN(D_3,7,0x000),
    DN(___,0,0x000),
    DN(D_3,7,0x000),
    DN(___,0,0x000),
    DN(D_3,7,0x000),
    DN(___,0,0x000),
    DN(D_3,7,0x000),
    DN(___,0,0x000),
    DN(D_3,7,0x000),
    DN(___,0,0x000),
    DN(D_3,7,0x000),
    DN(___,0,0x000),
    DN(D_3,7,0x000),
    DN(___,0,0x000),
    DN(D_3,7,0x000),
    DN(___,0,0x000),
    DN(G_3,7,0x000),
    DN(___,0,0x000),
    DN(G_3,7,0x000),
    DN(___,0,0x000),
    DN(G_3,7,0x000),
    DN(___,0,0x000),
    DN(G_3,7,0x000),
    DN(___,0,0x000),
    DN(G_3,7,0x000),
    DN(___,0,0x000),
    DN(G_3,7,0x000),
    DN(___,0,0x000),
    DN(G_3,7,0x000),
    DN(___,0,0x000),
    DN(G_3,7,0x000),
    DN(___,0,0x000),
};
static const unsigned char P12[] = {
    DN(A_6,9,0xC05),
    DN(___,0,0xC06),
    DN(___,0,0x000),
    DN(___,0,0x000),
    DN(___,0,0x000),
    DN(___,0,0xC04),
    DN(___,0,0x000),
    DN(___,0,0x000),
    DN(___,0,0x000),
    DN(___,0,0x000),
    DN(___,0,0x000),
    DN(___,0,0x000),
    DN(D_6,2,0xC09),
    DN(___,0,0x000),
    DN(A_4,2,0xC09),
    DN(D_6,2,0xC04),
    DN(___,0,0x000),
    DN(A_4,2,0xC04),
    DN(A_4,2,0xC09),
    DN(___,0,0x000),
    DN(A_4,2,0xC04),
    DN(___,0,0x000),
    DN(F_5,2,0xC0A),
    DN(___,0,0x000),
    DN(G_5,2,0x000),
    DN(F_5,2,0xC04),
    DN(___,0,0x000),
    DN(G_5,2,0xC04),
    DN(A_5,2,0x000),
    DN(___,0,0x000),
    DN(G_6,9,0xC05),
    DN(A_5,2,0xC04),
    DN(D_5,2,0x000),
    DN(G_6,9,0xC04),
    DN(___,0,0x000),
    DN(D_5,2,0xC04),
    DN(D_5,2,0x000),
    DN(___,0,0x000),
    DN(A_5,2,0x000),
    DN(D_5,2,0xC04),
    DN(C_6,2,0x000),
    DN(A_5,2,0xC04),
    DN(___,0,0x000),
    DN(C_6,2,0xC05),
    DN(D_6,2,0x000),
    DN(___,0,0x000),
    DN(G_5,2,0x000),
    DN(D_6,2,0xC05),
    DN(___,0,0x000),
    DN(G_5,2,0xC05),
    DN(G_5,2,0x000),
    DN(___,0,0x000),
    DN(G_5,2,0xC07),
    DN(___,0,0x000),
    DN(D_6,2,0x000),
    DN(___,0,0x000),
    DN(F_6,2,0x000),
    DN(D_6,2,0xC07),
    DN(___,0,0x000),
    DN(F_6,2,0xC07),
    DN(G_6,9,0x000),
    DN(___,0,0x000),
    DN(___,0,0x000),
    DN(C_6,2,0x000),
};
static const unsigned char P13[] = {
    DN(A_5,3,0x000),
    DN(___,0,0x000),
    DN(___,0,0x000),
    DN(___,0,0x000),
    DN(___,0,0x000),
    DN(___,0,0x000),
    DN(___,0,0x000),
    DN(___,0,0x000),
    DN(C_7,9,0xC05),
    DN(___,0,0xC06),
    DN(___,0,0x000),
    DN(___,0,0x000),
    DN(D_7,9,0xC05),
    DN(___,0,0xC06),
    DN(___,0,0x000),
    DN(___,0,0x000),
    DN(___,0,0x000),
    DN(___,0,0xC04),
    DN(___,0,0x000),
    DN(___,0,0x000),
    DN(___,0,0x000),
    DN(___,0,0x000),
    DN(___,0,0x000),
    DN(___,0,0x000),
    DN(G_6,9,0xC05),
    DN(___,0,0xC06),
    DN(___,0,0x000),
    DN(___,0,0x000),
    DN(A_6,9,0xC05),
    DN(___,0,0xC06),
    DN(___,0,0x000),
    DN(___,0,0x000),
    DN(___,0,0x000),
    DN(___,0,0xC04),
    DN(___,0,0x000),
    DN(___,0,0x000),
    DN(___,0,0x000),
    DN(___,0,0x000),
    DN(___,0,0x000),
    DN(___,0,0x000),
    DN(C_7,9,0xC05),
    DN(___,0,0xC06),
    DN(___,0,0x000),
    DN(___,0,0x000),
    DN(D_7,9,0xC05),
    DN(___,0,0xC06),
    DN(___,0,0x000),
    DN(___,0,0x000),
    DN(___,0,0x000),
    DN(___,0,0xC04),
    DN(___,0,0x000),
    DN(___,0,0x000),
    DN(___,0,0x000),
    DN(F_6,9,0xC01),
    DN(___,0,0x000),
    DN(___,0,0x000),
    DN(___,0,0xC02),
    DN(___,0,0x000),
    DN(___,0,0xC03),
    DN(___,0,0x000),
    DN(___,0,0xC04),
    DN(___,0,0xC05),
    DN(___,0,0xC06),
    DN(___,0,0x000),
};
static const unsigned char P14[] = {
    DN(D_3,7,0x000),
    DN(___,0,0x000),
    DN(D_3,7,0x000),
    DN(___,0,0x000),
    DN(D_3,7,0x000),
    DN(___,0,0x000),
    DN(D_3,7,0x000),
    DN(___,0,0x000),
    DN(D_3,7,0x000),
    DN(___,0,0x000),
    DN(D_3,7,0x000),
    DN(___,0,0x000),
    DN(D_3,7,0x000),
    DN(___,0,0x000),
    DN(D_3,7,0x000),
    DN(___,0,0x000),
    DN(A_3,7,0x000),
    DN(___,0,0x000),
    DN(A_3,7,0x000),
    DN(___,0,0x000),
    DN(A_3,7,0x000),
    DN(___,0,0x000),
    DN(A_3,7,0x000),
    DN(___,0,0x000),
    DN(A_3,7,0x000),
    DN(___,0,0x000),
    DN(A_3,7,0x000),
    DN(___,0,0x000),
    DN(A_3,7,0x000),
    DN(___,0,0x000),
    DN(A_3,7,0x000),
    DN(___,0,0x000),
    DN(D_3,7,0x000),
    DN(___,0,0x000),
    DN(D_3,7,0x000),
    DN(___,0,0x000),
    DN(D_3,7,0x000),
    DN(___,0,0x000),
    DN(D_3,7,0x000),
    DN(___,0,0x000),
    DN(D_3,7,0x000),
    DN(___,0,0x000),
    DN(D_3,7,0x000),
    DN(___,0,0x000),
    DN(D_3,7,0x000),
    DN(___,0,0x000),
    DN(D_3,7,0x000),
    DN(___,0,0x000),
    DN(D_3,7,0x000),
    DN(___,0,0x000),
    DN(___,0,0xC09),
    DN(___,0,0x000),
    DN(___,0,0xC01),
    DN(___,0,0x000),
    DN(___,0,0xC00),
    DN(___,0,0x000),
    DN(___,0,0x000),
    DN(___,0,0x000),
    DN(___,0,0x000),
    DN(___,0,0x000),
    DN(___,0,0x000),
    DN(___,0,0x000),
    DN(___,0,0x000),
    DN(___,0,0x000),
};
static const unsigned char P16[] = {
    DN(D_5,9,0x000),
    DN(___,0,0x000),
    DN(___,0,0x000),
    DN(___,0,0xC02),
    DN(D_5,9,0x000),
    DN(___,0,0x000),
    DN(A_5,9,0x000),
    DN(___,0,0x000),
    DN(C_6,10,0x000),
    DN(___,0,0x000),
    DN(___,0,0x000),
    DN(___,0,0xC04),
    DN(D_6,9,0x000),
    DN(___,0,0x000),
    DN(A_4,9,0x000),
    DN(___,0,0x000),
    DN(___,0,0x000),
    DN(___,0,0xC02),
    DN(A_4,9,0x000),
    DN(___,0,0x000),
    DN(___,0,0x000),
    DN(A_4,10,0xC02),
    DN(E_5,10,0x000),
    DN(___,0,0x000),
    DN(G_5,10,0x000),
    DN(___,0,0x000),
    DN(___,0,0x000),
    DN(___,0,0xC02),
    DN(A_5,10,0x000),
    DN(___,0,0x000),
    DN(A_6,10,0x20C),
    DN(A_5,10,0x207),
    DN(D_5,9,0x000),
    DN(___,0,0x000),
    DN(___,0,0x000),
    DN(___,0,0xC02),
    DN(D_5,10,0x000),
    DN(___,0,0x000),
    DN(A_5,10,0x000),
    DN(___,0,0x000),
    DN(C_6,10,0x000),
    DN(___,0,0x000),
    DN(___,0,0x000),
    DN(___,0,0xC04),
    DN(D_6,10,0x000),
    DN(___,0,0x000),
    DN(G_5,10,0x000),
    DN(___,0,0x000),
    DN(___,0,0x000),
    DN(___,0,0xC02),
    DN(G_5,9,0x000),
    DN(___,0,0x000),
    DN(___,0,0x000),
    DN(___,0,0xC02),
    DN(D_6,9,0x000),
    DN(___,0,0x000),
    DN(F_6,10,0x000),
    DN(___,0,0x000),
    DN(___,0,0x000),
    DN(___,0,0x000),
    DN(G_6,10,0x000),
    DN(___,0,0x000),
    DN(___,0,0x000),
    DN(C_6,10,0x000),
};
static const unsigned char P17[] = {
    DN(D_3,8,0x000),
    DN(___,0,0x000),
    DN(___,0,0x000),
    DN(___,0,0x000),
    DN(___,0,0xC00),
    DN(___,0,0x000),
    DN(A_3,8,0x000),
    DN(___,0,0x000),
    DN(C_4,8,0x000),
    DN(___,0,0x000),
    DN(___,0,0x000),
    DN(___,0,0x000),
    DN(D_4,8,0x000),
    DN(___,0,0x000),
    DN(A_3,8,0x000),
    DN(___,0,0x000),
    DN(___,0,0x000),
    DN(___,0,0xC00),
    DN(A_3,8,0x000),
    DN(___,0,0x000),
    DN(___,0,0x000),
    DN(___,0,0xC00),
    DN(E_3,8,0x000),
    DN(___,0,0x000),
    DN(G_3,8,0x000),
    DN(___,0,0x000),
    DN(___,0,0x000),
    DN(___,0,0x000),
    DN(A_3,8,0x000),
    DN(___,0,0x000),
    DN(___,0,0x000),
    DN(___,0,0x000),
    DN(D_3,8,0x000),
    DN(___,0,0x000),
    DN(___,0,0x000),
    DN(___,0,0x000),
    DN(___,0,0xC00),
    DN(___,0,0x000),
    DN(A_3,8,0x000),
    DN(___,0,0x000),
    DN(C_4,8,0x000),
    DN(___,0,0x000),
    DN(___,0,0x000),
    DN(___,0,0x000),
    DN(D_4,8,0x000),
    DN(___,0,0x000),
    DN(G_3,8,0x000),
    DN(___,0,0x000),
    DN(___,0,0x000),
    DN(___,0,0xC00),
    DN(G_3,8,0x000),
    DN(___,0,0x000),
    DN(___,0,0x000),
    DN(___,0,0xC00),
    DN(D_4,8,0x000),
    DN(___,0,0x000),
    DN(F_4,8,0x000),
    DN(___,0,0x000),
    DN(___,0,0x000),
    DN(___,0,0x000),
    DN(G_4,8,0x000),
    DN(___,0,0x000),
    DN(___,0,0x000),
    DN(___,0,0x000),
};
static const unsigned char P18[] = {
    DN(D_3,15,0x000),
    DN(___,0,0x000),
    DN(___,0,0x000),
    DN(___,0,0x000),
    DN(D_3,14,0x000),
    DN(___,0,0xC00),
    DN(A_3,7,0x000),
    DN(___,0,0x000),
    DN(C_4,7,0x000),
    DN(___,0,0x000),
    DN(C_4,15,0x000),
    DN(___,0,0x000),
    DN(D_4,14,0x000),
    DN(___,0,0x000),
    DN(A_3,7,0x000),
    DN(___,0,0x000),
    DN(C_3,15,0x000),
    DN(___,0,0xC00),
    DN(A_3,7,0x000),
    DN(___,0,0x000),
    DN(A_3,14,0x000),
    DN(___,0,0xC00),
    DN(E_3,15,0x000),
    DN(___,0,0x000),
    DN(G_3,7,0x000),
    DN(___,0,0x000),
    DN(G_3,15,0x000),
    DN(___,0,0x000),
    DN(A_3,14,0x000),
    DN(___,0,0x000),
    DN(___,0,0x000),
    DN(___,0,0x000),
    DN(D_3,15,0x000),
    DN(___,0,0x000),
    DN(___,0,0x000),
    DN(___,0,0x000),
    DN(D_3,14,0x000),
    DN(___,0,0xC00),
    DN(A_3,7,0x000),
    DN(___,0,0x000),
    DN(C_4,7,0x000),
    DN(___,0,0x000),
    DN(C_4,15,0x000),
    DN(___,0,0x000),
    DN(D_4,14,0x000),
    DN(___,0,0x000),
    DN(G_3,7,0x000),
    DN(___,0,0x000),
    DN(C_3,15,0x000),
    DN(___,0,0xC00),
    DN(G_3,7,0x000),
    DN(___,0,0x000),
    DN(G_3,14,0x000),
    DN(___,0,0xC00),
    DN(D_4,15,0x000),
    DN(___,0,0x000),
    DN(F_4,7,0x000),
    DN(___,0,0x000),
    DN(F_4,15,0x000),
    DN(___,0,0x000),
    DN(G_4,14,0x000),
    DN(___,0,0x000),
    DN(___,0,0x000),
    DN(___,0,0x000),
};
static const unsigned char P19[] = {
    DN(Fs5,5,0x000),
    DN(___,0,0x000),
    DN(___,0,0xC05),
    DN(___,0,0xC02),
    DN(G_5,3,0x000),
    DN(___,0,0x000),
    DN(Fs5,1,0x000),
    DN(___,0,0x000),
    DN(Gs5,2,0x000),
    DN(___,0,0x000),
    DN(G_5,2,0x000),
    DN(___,0,0x000),
    DN(G_5,3,0x000),
    DN(___,0,0x000),
    DN(Fs5,1,0x000),
    DN(Fs5,1,0x000),
    DN(G_5,2,0x000),
    DN(___,0,0x000),
    DN(Fs5,1,0x000),
    DN(___,0,0x000),
    DN(G_5,3,0x000),
    DN(___,0,0x000),
    DN(G_5,2,0x000),
    DN(___,0,0x000),
    DN(Fs5,1,0x000),
    DN(___,0,0x000),
    DN(G_5,2,0x000),
    DN(___,0,0x000),
    DN(G_5,3,0x000),
    DN(___,0,0x000),
    DN(Fs5,1,0x000),
    DN(Fs5,1,0x000),
    DN(G_5,2,0x000),
    DN(___,0,0x000),
    DN(Fs5,1,0x000),
    DN(___,0,0x000),
    DN(G_5,3,0x000),
    DN(___,0,0x000),
    DN(Fs5,1,0x000),
    DN(___,0,0x000),
    DN(Fs5,1,0x000),
    DN(___,0,0x000),
    DN(G_5,2,0x000),
    DN(___,0,0x000),
    DN(G_5,3,0x000),
    DN(___,0,0x000),
    DN(Fs5,1,0x000),
    DN(Gs5,2,0x000),
    DN(Fs5,1,0x000),
    DN(___,0,0x000),
    DN(G_5,2,0x000),
    DN(___,0,0x000),
    DN(G_5,3,0x000),
    DN(___,0,0x000),
    DN(G_5,2,0x000),
    DN(___,0,0x000),
    DN(Fs5,1,0x000),
    DN(___,0,0x000),
    DN(G_5,2,0x000),
    DN(G_5,2,0x000),
    DN(G_5,3,0x000),
    DN(___,0,0x000),
    DN(Fs5,1,0x000),
    DN(Gs5,2,0x000),
};
static const unsigned char P20[] = {
    DN(D_5,9,0x000),
    DN(___,0,0x000),
    DN(___,0,0x000),
    DN(___,0,0xC02),
    DN(D_5,9,0x000),
    DN(___,0,0x000),
    DN(A_5,9,0x000),
    DN(___,0,0x000),
    DN(C_6,10,0x000),
    DN(___,0,0x000),
    DN(___,0,0x000),
    DN(___,0,0xC04),
    DN(D_6,9,0x000),
    DN(___,0,0x000),
    DN(A_4,9,0x000),
    DN(___,0,0x000),
    DN(___,0,0x000),
    DN(___,0,0xC02),
    DN(A_4,9,0x000),
    DN(___,0,0x000),
    DN(___,0,0x000),
    DN(A_4,10,0xC02),
    DN(E_5,10,0x000),
    DN(___,0,0x000),
    DN(G_5,10,0x000),
    DN(___,0,0x000),
    DN(___,0,0x000),
    DN(___,0,0xC02),
    DN(A_5,10,0x000),
    DN(___,0,0x000),
    DN(A_6,10,0x20C),
    DN(A_5,10,0x207),
    DN(D_5,10,0x000),
    DN(___,0,0xE05),
    DN(D_5,10,0x000),
    DN(___,0,0xE05),
    DN(___,0,0x000),
    DN(___,0,0x000),
    DN(F_5,10,0x000),
    DN(___,0,0xE05),
    DN(F_5,10,0x000),
    DN(___,0,0xE05),
    DN(___,0,0x000),
    DN(___,0,0x000),
    DN(G_5,10,0x000),
    DN(___,0,0xE05),
    DN(G_5,10,0x000),
    DN(___,0,0xE05),
    DN(___,0,0x000),
    DN(___,0,0x000),
    DN(A_5,10,0x000),
    DN(___,0,0xE05),
    DN(A_5,10,0x000),
    DN(___,0,0xE05),
    DN(___,0,0x000),
    DN(___,0,0x000),
    DN(C_6,10,0x000),
    DN(___,0,0x000),
    DN(___,0,0x000),
    DN(___,0,0x000),
    DN(Cs6,10,0x000),
    DN(___,0,0x000),
    DN(___,0,0x000),
    DN(___,0,0x000),
};
static const unsigned char P21[] = {
    DN(D_3,8,0x000),
    DN(___,0,0x000),
    DN(___,0,0x000),
    DN(___,0,0x000),
    DN(___,0,0xC00),
    DN(___,0,0x000),
    DN(A_3,8,0x000),
    DN(___,0,0x000),
    DN(C_4,8,0x000),
    DN(___,0,0x000),
    DN(___,0,0x000),
    DN(___,0,0x000),
    DN(D_4,8,0x000),
    DN(___,0,0x000),
    DN(A_3,8,0x000),
    DN(___,0,0x000),
    DN(___,0,0x000),
    DN(___,0,0xC00),
    DN(A_3,8,0x000),
    DN(___,0,0x000),
    DN(___,0,0x000),
    DN(___,0,0xC00),
    DN(E_3,8,0x000),
    DN(___,0,0x000),
    DN(G_3,8,0x000),
    DN(___,0,0x000),
    DN(___,0,0x000),
    DN(___,0,0x000),
    DN(A_3,8,0x000),
    DN(___,0,0x000),
    DN(___,0,0x000),
    DN(___,0,0x000),
    DN(D_3,8,0x000),
    DN(___,0,0x000),
    DN(D_3,8,0x000),
    DN(___,0,0x000),
    DN(___,0,0xC00),
    DN(___,0,0x000),
    DN(F_3,8,0x000),
    DN(___,0,0x000),
    DN(F_3,8,0x000),
    DN(___,0,0x000),
    DN(___,0,0x000),
    DN(___,0,0x000),
    DN(G_3,8,0x000),
    DN(___,0,0x000),
    DN(G_3,8,0x000),
    DN(___,0,0x000),
    DN(___,0,0xC00),
    DN(___,0,0x000),
    DN(A_3,8,0x000),
    DN(___,0,0x000),
    DN(A_3,8,0x000),
    DN(___,0,0x000),
    DN(___,0,0x000),
    DN(___,0,0x000),
    DN(C_4,8,0x000),
    DN(___,0,0x000),
    DN(___,0,0x000),
    DN(___,0,0x000),
    DN(Cs4,8,0x000),
    DN(___,0,0x000),
    DN(___,0,0xC00),
    DN(___,0,0x000),
};
static const unsigned char P22[] = {
    DN(D_3,15,0x000),
    DN(___,0,0x000),
    DN(___,0,0x000),
    DN(___,0,0x000),
    DN(D_3,14,0x000),
    DN(___,0,0xC00),
    DN(A_3,7,0x000),
    DN(___,0,0x000),
    DN(C_4,7,0x000),
    DN(___,0,0x000),
    DN(C_4,15,0x000),
    DN(___,0,0x000),
    DN(D_4,14,0x000),
    DN(___,0,0x000),
    DN(A_3,7,0x000),
    DN(___,0,0x000),
    DN(C_3,15,0x000),
    DN(___,0,0xC00),
    DN(A_3,7,0x000),
    DN(___,0,0x000),
    DN(A_3,14,0x000),
    DN(___,0,0xC00),
    DN(E_3,15,0x000),
    DN(___,0,0x000),
    DN(G_3,7,0x000),
    DN(___,0,0x000),
    DN(G_3,15,0x000),
    DN(___,0,0x000),
    DN(A_3,14,0x000),
    DN(___,0,0x000),
    DN(___,0,0x000),
    DN(___,0,0x000),
    DN(D_3,14,0x000),
    DN(___,0,0x000),
    DN(D_3,15,0x000),
    DN(___,0,0x000),
    DN(___,0,0x000),
    DN(D_3,14,0x000),
    DN(F_3,14,0x000),
    DN(___,0,0x000),
    DN(F_3,15,0x000),
    DN(___,0,0x000),
    DN(___,0,0x000),
    DN(F_3,14,0x000),
    DN(G_3,14,0x000),
    DN(___,0,0x000),
    DN(G_3,15,0x000),
    DN(___,0,0x000),
    DN(___,0,0x000),
    DN(G_3,14,0x000),
    DN(A_3,14,0x000),
    DN(___,0,0x000),
    DN(A_3,15,0x000),
    DN(___,0,0x000),
    DN(___,0,0x000),
    DN(___,0,0x000),
    DN(C_4,14,0x000),
    DN(___,0,0x000),
    DN(C_4,15,0x000),
    DN(___,0,0x000),
    DN(Cs4,14,0x000),
    DN(Cs4,14,0x000),
    DN(Cs4,14,0x000),
    DN(Cs4,14,0x000),
};
static const unsigned char P23[] = {
    DN(Fs5,5,0x000),
    DN(___,0,0x000),
    DN(___,0,0xC05),
    DN(___,0,0xC02),
    DN(G_5,3,0x000),
    DN(___,0,0x000),
    DN(Fs5,1,0x000),
    DN(___,0,0x000),
    DN(Gs5,2,0x000),
    DN(___,0,0x000),
    DN(G_5,2,0x000),
    DN(___,0,0x000),
    DN(G_5,3,0x000),
    DN(___,0,0x000),
    DN(Fs5,1,0x000),
    DN(Fs5,1,0x000),
    DN(G_5,2,0x000),
    DN(___,0,0x000),
    DN(Fs5,1,0x000),
    DN(___,0,0x000),
    DN(G_5,3,0x000),
    DN(___,0,0x000),
    DN(G_5,2,0x000),
    DN(___,0,0x000),
    DN(Fs5,1,0x000),
    DN(___,0,0x000),
    DN(G_5,2,0x000),
    DN(___,0,0x000),
    DN(G_5,3,0x000),
    DN(___,0,0x000),
    DN(Fs5,1,0x000),
    DN(Fs5,1,0x000),
    DN(G_5,3,0x000),
    DN(___,0,0x000),
    DN(G_5,2,0x000),
    DN(___,0,0x000),
    DN(___,0,0x000),
    DN(G_5,3,0x000),
    DN(G_5,3,0x000),
    DN(___,0,0x000),
    DN(G_5,2,0x000),
    DN(___,0,0x000),
    DN(___,0,0x000),
    DN(G_5,3,0x000),
    DN(G_5,3,0x000),
    DN(___,0,0x000),
    DN(G_5,2,0x000),
    DN(___,0,0x000),
    DN(___,0,0x000),
    DN(G_5,3,0x000),
    DN(G_5,3,0x000),
    DN(___,0,0x000),
    DN(G_5,2,0x000),
    DN(___,0,0x000),
    DN(___,0,0x000),
    DN(___,0,0x000),
    DN(G_5,3,0x000),
    DN(___,0,0x000),
    DN(G_5,2,0x000),
    DN(___,0,0x000),
    DN(G_5,3,0x000),
    DN(G_5,3,0x000),
    DN(G_5,3,0x000),
    DN(G_5,3,0x000),
};
static const unsigned char P24[] = {
    DN(D_6,9,0x000),
    DN(___,0,0x000),
    DN(___,0,0x000),
    DN(___,0,0x000),
    DN(___,0,0xA07),
    DN(___,0,0x20C),
    DN(___,0,0x20C),
    DN(___,0,0x20C),
    DN(___,0,0x20C),
    DN(___,0,0xC00),
    DN(D_8,1,0xC0F),
    DN(___,0,0x000),
    DN(A_7,1,0x000),
    DN(___,0,0x000),
    DN(___,0,0x000),
    DN(___,0,0x000),
    DN(G_7,1,0x000),
    DN(___,0,0x000),
    DN(___,0,0x000),
    DN(___,0,0x000),
    DN(A_7,1,0x000),
    DN(___,0,0x000),
    DN(___,0,0x000),
    DN(___,0,0x000),
    DN(E_7,1,0x000),
    DN(___,0,0x000),
    DN(___,0,0x000),
    DN(___,0,0x000),
    DN(D_7,1,0x000),
    DN(___,0,0x000),
    DN(___,0,0x000),
    DN(___,0,0x000),
    DN(A_6,1,0x000),
    DN(___,0,0x000),
    DN(A_6,1,0xC05),
    DN(___,0,0x000),
    DN(___,0,0x000),
    DN(___,0,0x000),
    DN(C_7,1,0x000),
    DN(___,0,0x000),
    DN(___,0,0x000),
    DN(___,0,0x000),
    DN(D_7,1,0x000),
    DN(___,0,0x000),
    DN(___,0,0x000),
    DN(___,0,0x000),
    DN(A_7,1,0x000),
    DN(___,0,0x000),
    DN(G_6,1,0x000),
    DN(___,0,0x000),
    DN(D_7,1,0x000),
    DN(___,0,0x000),
    DN(___,0,0x000),
    DN(___,0,0x000),
    DN(G_6,1,0x000),
    DN(___,0,0x000),
    DN(D_7,1,0x000),
    DN(___,0,0x000),
    DN(___,0,0x000),
    DN(___,0,0x000),
    DN(F_7,1,0x000),
    DN(___,0,0x000),
    DN(___,0,0x000),
    DN(___,0,0x000),
};
static const unsigned char P25[] = {
    DN(Fs3,2,0x269),
    DN(D_4,15,0x000),
    DN(___,0,0x000),
    DN(___,0,0x000),
    DN(___,0,0x000),
    DN(___,0,0x000),
    DN(___,0,0x000),
    DN(___,0,0x000),
    DN(___,0,0x000),
    DN(___,0,0x000),
    DN(___,0,0x000),
    DN(___,0,0x000),
    DN(___,0,0x000),
    DN(___,0,0x000),
    DN(Fs3,2,0x269),
    DN(D_4,15,0x000),
    DN(Fs3,2,0x269),
    DN(D_4,15,0x000),
    DN(___,0,0x000),
    DN(Fs3,2,0x269),
    DN(D_4,15,0x000),
    DN(___,0,0x000),
    DN(Fs3,2,0x269),
    DN(D_4,15,0x000),
    DN(___,0,0x000),
    DN(___,0,0x000),
    DN(___,0,0x000),
    DN(___,0,0x000),
    DN(___,0,0x000),
    DN(___,0,0x000),
    DN(Fs3,2,0x269),
    DN(D_4,15,0x000),
    DN(Fs3,2,0x269),
    DN(D_4,15,0x000),
    DN(___,0,0x000),
    DN(___,0,0x000),
    DN(___,0,0x000),
    DN(___,0,0x000),
    DN(___,0,0x000),
    DN(___,0,0x000),
    DN(___,0,0x000),
    DN(___,0,0x000),
    DN(___,0,0x000),
    DN(___,0,0x000),
    DN(___,0,0x000),
    DN(___,0,0x000),
    DN(Fs3,2,0x269),
    DN(D_4,15,0x000),
    DN(Fs3,2,0x269),
    DN(D_4,15,0x000),
    DN(___,0,0x000),
    DN(Fs3,2,0x269),
    DN(D_4,15,0x000),
    DN(___,0,0x000),
    DN(Fs3,2,0x269),
    DN(D_4,15,0x000),
    DN(___,0,0x000),
    DN(___,0,0x000),
    DN(___,0,0x000),
    DN(___,0,0x000),
    DN(___,0,0x000),
    DN(___,0,0x000),
    DN(___,0,0x000),
    DN(___,0,0x000),
};
static const unsigned char P26[] = {
    DN(D_4,7,0x000),
    DN(___,0,0x000),
    DN(___,0,0x000),
    DN(___,0,0x000),
    DN(___,0,0x000),
    DN(___,0,0x000),
    DN(A_4,7,0x000),
    DN(___,0,0x000),
    DN(___,0,0xC00),
    DN(___,0,0x000),
    DN(___,0,0x000),
    DN(___,0,0x000),
    DN(___,0,0x000),
    DN(___,0,0x000),
    DN(A_3,7,0x000),
    DN(___,0,0x000),
    DN(___,0,0x000),
    DN(___,0,0x000),
    DN(___,0,0x000),
    DN(___,0,0x000),
    DN(___,0,0x000),
    DN(___,0,0x000),
    DN(E_4,7,0x000),
    DN(___,0,0x000),
    DN(___,0,0xC00),
    DN(___,0,0x000),
    DN(___,0,0x000),
    DN(___,0,0x000),
    DN(___,0,0x000),
    DN(___,0,0x000),
    DN(___,0,0x000),
    DN(___,0,0x000),
    DN(D_4,7,0x000),
    DN(___,0,0x000),
    DN(___,0,0x000),
    DN(___,0,0x000),
    DN(___,0,0x000),
    DN(___,0,0x000),
    DN(A_4,7,0x000),
    DN(___,0,0x000),
    DN(___,0,0xC00),
    DN(___,0,0x000),
    DN(___,0,0x000),
    DN(___,0,0x000),
    DN(___,0,0x000),
    DN(___,0,0x000),
    DN(G_4,7,0x000),
    DN(___,0,0x000),
    DN(___,0,0x000),
    DN(___,0,0x000),
    DN(___,0,0x000),
    DN(___,0,0x000),
    DN(___,0,0x000),
    DN(___,0,0x000),
    DN(D_5,7,0x000),
    DN(___,0,0x000),
    DN(___,0,0xC00),
    DN(___,0,0x000),
    DN(___,0,0x000),
    DN(___,0,0x000),
    DN(___,0,0x000),
    DN(___,0,0x000),
    DN(___,0,0x000),
    DN(___,0,0x000),
};
static const unsigned char P27[] = {
    DN(F_5,5,0x000),
    DN(___,0,0x000),
    DN(___,0,0x000),
    DN(___,0,0x000),
    DN(Fs5,2,0x000),
    DN(___,0,0x000),
    DN(Gs5,2,0x000),
    DN(___,0,0x000),
    DN(Fs5,2,0x000),
    DN(___,0,0x000),
    DN(Gs5,2,0x000),
    DN(___,0,0x000),
    DN(Fs5,2,0x000),
    DN(___,0,0x000),
    DN(Gs5,2,0x000),
    DN(___,0,0x000),
    DN(G_5,3,0x000),
    DN(___,0,0x000),
    DN(Gs5,2,0x000),
    DN(___,0,0x000),
    DN(Fs5,2,0x000),
    DN(___,0,0x000),
    DN(Gs5,2,0x000),
    DN(___,0,0x000),
    DN(Fs5,2,0x000),
    DN(___,0,0x000),
    DN(Gs5,2,0x000),
    DN(___,0,0x000),
    DN(Fs5,2,0x000),
    DN(___,0,0x000),
    DN(G_5,3,0x000),
    DN(___,0,0x000),
    DN(G_5,3,0x000),
    DN(___,0,0x000),
    DN(Gs5,2,0x000),
    DN(___,0,0x000),
    DN(Fs5,2,0x000),
    DN(___,0,0x000),
    DN(Gs5,2,0x000),
    DN(___,0,0x000),
    DN(Fs5,2,0x000),
    DN(___,0,0x000),
    DN(Gs5,2,0x000),
    DN(___,0,0x000),
    DN(Fs5,2,0x000),
    DN(___,0,0x000),
    DN(Gs5,2,0x000),
    DN(___,0,0x000),
    DN(G_5,3,0x000),
    DN(___,0,0x000),
    DN(Gs5,2,0x000),
    DN(___,0,0x000),
    DN(Fs5,2,0x000),
    DN(___,0,0x000),
    DN(Gs5,2,0x000),
    DN(___,0,0x000),
    DN(Fs5,2,0x000),
    DN(___,0,0x000),
    DN(Gs5,2,0x000),
    DN(___,0,0x000),
    DN(Gs5,2,0xC01),
    DN(___,0,0xC04),
    DN(___,0,0xC07),
    DN(___,0,0xC09),
};
static const unsigned char P28[] = {
    DN(D_7,1,0x000),
    DN(___,0,0x000),
    DN(___,0,0x000),
    DN(___,0,0x000),
    DN(___,0,0x000),
    DN(___,0,0x000),
    DN(A_7,1,0x000),
    DN(___,0,0x000),
    DN(___,0,0x000),
    DN(___,0,0x000),
    DN(C_8,1,0x000),
    DN(___,0,0x000),
    DN(A_7,1,0x000),
    DN(___,0,0x000),
    DN(___,0,0x000),
    DN(___,0,0x000),
    DN(G_7,1,0x000),
    DN(___,0,0x000),
    DN(___,0,0x000),
    DN(___,0,0x000),
    DN(A_7,1,0x000),
    DN(___,0,0x000),
    DN(___,0,0x000),
    DN(___,0,0x000),
    DN(C_8,1,0x000),
    DN(___,0,0x000),
    DN(___,0,0x000),
    DN(___,0,0x000),
    DN(D_8,1,0x000),
    DN(___,0,0x000),
    DN(___,0,0x000),
    DN(___,0,0x000),
    DN(A_8,1,0x000),
    DN(___,0,0x000),
    DN(___,0,0x000),
    DN(___,0,0x000),
    DN(___,0,0x000),
    DN(___,0,0x000),
    DN(C_8,1,0x000),
    DN(___,0,0x000),
    DN(___,0,0x000),
    DN(___,0,0x000),
    DN(D_8,1,0x000),
    DN(___,0,0x000),
    DN(___,0,0x000),
    DN(___,0,0x000),
    DN(A_8,1,0x000),
    DN(___,0,0x000),
    DN(D_3,1,0x23A),
    DN(___,0,0x000),
    DN(___,0,0x000),
    DN(___,0,0x000),
    DN(___,0,0x000),
    DN(___,0,0x000),
    DN(___,0,0x000),
    DN(___,0,0x000),
    DN(C_8,12,0x000),
    DN(C_8,12,0x000),
    DN(C_8,12,0x000),
    DN(C_8,12,0x000),
    DN(C_8,12,0x000),
    DN(___,0,0x000),
    DN(___,0,0x000),
    DN(___,0,0x000),
};
static const unsigned char P32[] = {
    DN(D_4,7,0x000),
    DN(___,0,0x000),
    DN(___,0,0x000),
    DN(___,0,0x000),
    DN(___,0,0x000),
    DN(___,0,0x000),
    DN(A_4,7,0x000),
    DN(___,0,0x000),
    DN(___,0,0xC00),
    DN(___,0,0x000),
    DN(___,0,0x000),
    DN(___,0,0x000),
    DN(___,0,0x000),
    DN(___,0,0x000),
    DN(A_3,7,0x000),
    DN(___,0,0x000),
    DN(___,0,0x000),
    DN(___,0,0x000),
    DN(___,0,0x000),
    DN(___,0,0x000),
    DN(___,0,0x000),
    DN(___,0,0x000),
    DN(E_4,7,0x000),
    DN(___,0,0x000),
    DN(___,0,0xC00),
    DN(___,0,0x000),
    DN(___,0,0x000),
    DN(___,0,0x000),
    DN(___,0,0x000),
    DN(___,0,0x000),
    DN(___,0,0x000),
    DN(___,0,0x000),
    DN(D_4,7,0x000),
    DN(___,0,0x000),
    DN(___,0,0x000),
    DN(___,0,0x000),
    DN(___,0,0x000),
    DN(___,0,0x000),
    DN(A_4,7,0x000),
    DN(___,0,0x000),
    DN(___,0,0xC00),
    DN(___,0,0x000),
    DN(___,0,0x000),
    DN(___,0,0x000),
    DN(___,0,0x000),
    DN(___,0,0x000),
    DN(G_4,7,0x000),
    DN(___,0,0x000),
    DN(___,0,0x000),
    DN(___,0,0x000),
    DN(___,0,0x000),
    DN(___,0,0x000),
    DN(___,0,0x000),
    DN(___,0,0x000),
    DN(D_4,7,0x000),
    DN(___,0,0x000),
    DN(___,0,0xC00),
    DN(___,0,0x000),
    DN(C_5,7,0x000),
    DN(___,0,0x000),
    DN(D_5,7,0x000),
    DN(___,0,0x000),
    DN(C_5,7,0x000),
    DN(___,0,0x000),
};
static const unsigned char P33[] = {
    DN(Fs3,2,0x269),
    DN(D_4,15,0x000),
    DN(___,0,0x000),
    DN(___,0,0x000),
    DN(___,0,0x000),
    DN(___,0,0x000),
    DN(___,0,0x000),
    DN(___,0,0x000),
    DN(___,0,0x000),
    DN(___,0,0x000),
    DN(___,0,0x000),
    DN(___,0,0x000),
    DN(___,0,0x000),
    DN(___,0,0x000),
    DN(Fs3,2,0x269),
    DN(D_4,15,0x000),
    DN(Fs3,2,0x269),
    DN(D_4,15,0x000),
    DN(___,0,0x000),
    DN(Fs3,2,0x269),
    DN(D_4,15,0x000),
    DN(___,0,0x000),
    DN(Fs3,2,0x269),
    DN(D_4,15,0x000),
    DN(___,0,0x000),
    DN(___,0,0x000),
    DN(___,0,0x000),
    DN(___,0,0x000),
    DN(___,0,0x000),
    DN(___,0,0x000),
    DN(Fs3,2,0x269),
    DN(D_4,15,0x000),
    DN(Fs3,2,0x269),
    DN(D_4,15,0x000),
    DN(___,0,0x000),
    DN(___,0,0x000),
    DN(___,0,0x000),
    DN(___,0,0x000),
    DN(___,0,0x000),
    DN(___,0,0x000),
    DN(___,0,0x000),
    DN(___,0,0x000),
    DN(___,0,0x000),
    DN(___,0,0x000),
    DN(___,0,0x000),
    DN(___,0,0x000),
    DN(Fs3,2,0x269),
    DN(D_4,15,0x000),
    DN(Fs3,2,0x269),
    DN(D_4,15,0x000),
    DN(___,0,0x000),
    DN(Fs3,2,0x269),
    DN(D_4,15,0x000),
    DN(___,0,0x000),
    DN(Fs3,2,0x269),
    DN(D_4,15,0x000),
    DN(D_8,1,0x000),
    DN(A_7,1,0x000),
    DN(F_7,1,0x000),
    DN(D_7,1,0x000),
    DN(C_7,1,0x000),
    DN(___,0,0x000),
    DN(___,0,0x000),
    DN(___,0,0x000),
};
static const unsigned char P34[] = {
    DN(D_6,1,0x000),
    DN(___,0,0x000),
    DN(___,0,0x000),
    DN(___,0,0x000),
    DN(D_6,13,0x000),
    DN(___,0,0x000),
    DN(___,0,0x000),
    DN(___,0,0xC03),
    DN(D_6,13,0x000),
    DN(___,0,0x000),
    DN(C_6,13,0x000),
    DN(___,0,0x000),
    DN(___,0,0x000),
    DN(___,0,0xC03),
    DN(C_6,13,0x000),
    DN(___,0,0x000),
    DN(___,0,0x000),
    DN(___,0,0xC03),
    DN(C_6,13,0x000),
    DN(___,0,0x000),
    DN(___,0,0x000),
    DN(___,0,0xC03),
    DN(C_6,13,0x000),
    DN(___,0,0x000),
    DN(___,0,0x000),
    DN(___,0,0xC03),
    DN(B_5,13,0x000),
    DN(___,0,0x000),
    DN(___,0,0x000),
    DN(___,0,0xC03),
    DN(B_5,13,0x000),
    DN(___,0,0x000),
    DN(___,0,0x000),
    DN(___,0,0x000),
    DN(___,0,0x000),
    DN(___,0,0x000),
    DN(___,0,0xC06),
    DN(___,0,0x000),
    DN(___,0,0x000),
    DN(___,0,0x000),
    DN(___,0,0x000),
    DN(___,0,0x000),
    DN(___,0,0x000),
    DN(___,0,0x000),
    DN(___,0,0xC05),
    DN(___,0,0x000),
    DN(___,0,0x000),
    DN(___,0,0x000),
    DN(___,0,0xC04),
    DN(___,0,0x000),
    DN(___,0,0x000),
    DN(___,0,0x000),
    DN(___,0,0xC03),
    DN(___,0,0x000),
    DN(___,0,0x000),
    DN(___,0,0x000),
    DN(___,0,0xC01),
    DN(___,0,0x000),
    DN(___,0,0x000),
    DN(___,0,0x000),
    DN(___,0,0xC00),
    DN(___,0,0x000),
    DN(___,0,0x000),
    DN(___,0,0x000),
};
static const unsigned char P35[] = {
    DN(___,0,0x000),
    DN(___,0,0x000),
    DN(___,0,0x000),
    DN(___,0,0x000),
    DN(D_6,8,0x000),
    DN(___,0,0x000),
    DN(___,0,0xC07),
    DN(___,0,0x000),
    DN(D_6,8,0x000),
    DN(___,0,0x000),
    DN(C_6,8,0x000),
    DN(___,0,0x000),
    DN(___,0,0xC07),
    DN(___,0,0x000),
    DN(C_6,8,0x000),
    DN(___,0,0x000),
    DN(___,0,0xC07),
    DN(___,0,0x000),
    DN(C_6,8,0x000),
    DN(___,0,0x000),
    DN(___,0,0xC07),
    DN(___,0,0x000),
    DN(C_6,8,0x000),
    DN(___,0,0x000),
    DN(___,0,0xC07),
    DN(___,0,0x000),
    DN(B_5,8,0x000),
    DN(___,0,0x000),
    DN(___,0,0xC07),
    DN(___,0,0x000),
    DN(B_5,8,0x000),
    DN(___,0,0x000),
    DN(___,0,0xC07),
    DN(___,0,0x000),
    DN(G_7,1,0x000),
    DN(___,0,0x000),
    DN(G_7,1,0x000),
    DN(___,0,0x000),
    DN(D_7,1,0x000),
    DN(___,0,0x000),
    DN(D_7,1,0x000),
    DN(___,0,0x000),
    DN(G_6,1,0x000),
    DN(___,0,0x000),
    DN(G_6,1,0x000),
    DN(___,0,0x000),
    DN(F_6,1,0x000),
    DN(___,0,0x000),
    DN(F_6,1,0x000),
    DN(___,0,0x000),
    DN(G_6,1,0x000),
    DN(___,0,0x000),
    DN(G_6,1,0x000),
    DN(___,0,0x000),
    DN(G_6,1,0xC07),
    DN(___,0,0x000),
    DN(G_6,1,0xC03),
    DN(___,0,0x000),
    DN(G_6,1,0xC01),
    DN(___,0,0x000),
    DN(___,0,0x000),
    DN(___,0,0x000),
    DN(___,0,0x000),
    DN(___,0,0x000),
};
static const unsigned char P36[] = {
    DN(D_4,7,0x000),
    DN(___,0,0x000),
    DN(___,0,0x000),
    DN(___,0,0x000),
    DN(A_4,7,0x000),
    DN(___,0,0x000),
    DN(___,0,0xC01),
    DN(___,0,0x000),
    DN(___,0,0x000),
    DN(___,0,0x000),
    DN(D_4,7,0x000),
    DN(___,0,0x000),
    DN(C_5,7,0x000),
    DN(___,0,0x000),
    DN(___,0,0xC01),
    DN(___,0,0x000),
    DN(D_4,7,0x000),
    DN(___,0,0x000),
    DN(D_4,7,0x000),
    DN(___,0,0x000),
    DN(C_5,7,0x000),
    DN(___,0,0x000),
    DN(___,0,0xC01),
    DN(___,0,0x000),
    DN(___,0,0x000),
    DN(___,0,0x000),
    DN(D_4,7,0x000),
    DN(___,0,0x000),
    DN(B_4,7,0x000),
    DN(___,0,0x000),
    DN(___,0,0xC01),
    DN(___,0,0x000),
    DN(G_4,7,0x000),
    DN(___,0,0x000),
    DN(G_4,7,0x000),
    DN(___,0,0x000),
    DN(B_4,7,0x000),
    DN(___,0,0x000),
    DN(___,0,0xC01),
    DN(___,0,0x000),
    DN(___,0,0x000),
    DN(___,0,0x000),
    DN(G_4,7,0x000),
    DN(___,0,0x000),
    DN(D_5,7,0x000),
    DN(___,0,0x000),
    DN(___,0,0xC01),
    DN(___,0,0x000),
    DN(D_4,7,0x000),
    DN(___,0,0x000),
    DN(D_4,7,0x000),
    DN(___,0,0x000),
    DN(G_4,7,0x000),
    DN(___,0,0x000),
    DN(___,0,0xC01),
    DN(___,0,0x000),
    DN(___,0,0x000),
    DN(___,0,0x000),
    DN(D_4,7,0x000),
    DN(___,0,0x000),
    DN(B_4,7,0x000),
    DN(___,0,0x000),
    DN(___,0,0xC01),
    DN(___,0,0x000),
};
static const unsigned char P38[] = {
    DN(D_3,8,0x000),
    DN(___,0,0x000),
    DN(___,0,0x000),
    DN(___,0,0x000),
    DN(D_6,13,0x000),
    DN(___,0,0x000),
    DN(___,0,0x000),
    DN(___,0,0xC03),
    DN(D_6,13,0x000),
    DN(___,0,0x000),
    DN(C_6,13,0x000),
    DN(___,0,0x000),
    DN(___,0,0x000),
    DN(___,0,0x000),
    DN(C_6,13,0x000),
    DN(___,0,0x000),
    DN(___,0,0x000),
    DN(___,0,0xC03),
    DN(C_6,13,0x000),
    DN(___,0,0x000),
    DN(___,0,0x000),
    DN(___,0,0x000),
    DN(C_6,13,0x000),
    DN(___,0,0x000),
    DN(___,0,0x000),
    DN(___,0,0xC03),
    DN(F_6,13,0x000),
    DN(___,0,0x000),
    DN(___,0,0x000),
    DN(___,0,0x000),
    DN(G_6,13,0x000),
    DN(___,0,0x000),
    DN(___,0,0x000),
    DN(___,0,0x000),
    DN(___,0,0x000),
    DN(___,0,0x000),
    DN(___,0,0xC04),
    DN(___,0,0x000),
    DN(___,0,0x000),
    DN(___,0,0x000),
    DN(___,0,0x000),
    DN(___,0,0x000),
    DN(___,0,0x000),
    DN(___,0,0x000),
    DN(___,0,0xC02),
    DN(___,0,0x000),
    DN(___,0,0x000),
    DN(___,0,0x000),
    DN(D_6,6,0x000),
    DN(___,0,0x000),
    DN(D_7,6,0x000),
    DN(___,0,0x000),
    DN(D_6,6,0x000),
    DN(___,0,0x000),
    DN(D_7,6,0x000),
    DN(___,0,0x000),
    DN(D_6,6,0x000),
    DN(___,0,0x000),
    DN(D_7,6,0x000),
    DN(___,0,0x000),
    DN(D_6,6,0x000),
    DN(___,0,0x000),
    DN(D_7,6,0x000),
    DN(___,0,0x000),
};
static const unsigned char P39[] = {
    DN(___,0,0x000),
    DN(___,0,0x000),
    DN(___,0,0x000),
    DN(___,0,0x000),
    DN(D_6,8,0x000),
    DN(___,0,0x000),
    DN(___,0,0xC07),
    DN(___,0,0x000),
    DN(D_6,8,0x000),
    DN(___,0,0x000),
    DN(C_6,8,0x000),
    DN(___,0,0x000),
    DN(___,0,0xC07),
    DN(___,0,0x000),
    DN(C_6,8,0x000),
    DN(___,0,0x000),
    DN(___,0,0xC07),
    DN(___,0,0x000),
    DN(C_6,8,0x000),
    DN(___,0,0x000),
    DN(___,0,0xC07),
    DN(___,0,0x000),
    DN(C_6,8,0x000),
    DN(___,0,0x000),
    DN(___,0,0xC07),
    DN(___,0,0x000),
    DN(B_5,8,0x000),
    DN(___,0,0x000),
    DN(___,0,0xC07),
    DN(___,0,0x000),
    DN(B_5,8,0x000),
    DN(___,0,0x000),
    DN(___,0,0xC07),
    DN(___,0,0x000),
    DN(G_7,1,0x000),
    DN(___,0,0x000),
    DN(G_7,1,0x000),
    DN(___,0,0x000),
    DN(D_7,1,0x000),
    DN(___,0,0x000),
    DN(D_7,1,0x000),
    DN(___,0,0x000),
    DN(G_6,1,0x000),
    DN(___,0,0x000),
    DN(G_6,1,0x000),
    DN(___,0,0x000),
    DN(F_7,1,0x000),
    DN(___,0,0x000),
    DN(F_7,1,0x000),
    DN(___,0,0x000),
    DN(G_7,1,0x000),
    DN(___,0,0x000),
    DN(G_7,1,0x000),
    DN(___,0,0x000),
    DN(G_7,1,0xC07),
    DN(___,0,0x000),
    DN(G_7,1,0xC03),
    DN(___,0,0x000),
    DN(G_7,1,0xC01),
    DN(___,0,0x000),
    DN(___,0,0x000),
    DN(___,0,0x000),
    DN(___,0,0x000),
    DN(___,0,0x000),
};
static const unsigned char P40[] = {
    DN(D_4,7,0x000),
    DN(___,0,0x000),
    DN(___,0,0x000),
    DN(___,0,0x000),
    DN(A_4,7,0x000),
    DN(___,0,0x000),
    DN(___,0,0xC01),
    DN(___,0,0x000),
    DN(___,0,0x000),
    DN(___,0,0x000),
    DN(D_4,7,0x000),
    DN(___,0,0x000),
    DN(C_5,7,0x000),
    DN(___,0,0x000),
    DN(___,0,0xC01),
    DN(___,0,0x000),
    DN(D_4,7,0x000),
    DN(___,0,0x000),
    DN(D_4,7,0x000),
    DN(___,0,0x000),
    DN(C_5,7,0x000),
    DN(___,0,0x000),
    DN(___,0,0xC01),
    DN(___,0,0x000),
    DN(___,0,0x000),
    DN(___,0,0x000),
    DN(D_4,7,0x000),
    DN(___,0,0x000),
    DN(B_4,7,0x000),
    DN(___,0,0x000),
    DN(___,0,0xC01),
    DN(___,0,0x000),
    DN(G_4,7,0x000),
    DN(___,0,0x000),
    DN(G_4,7,0x000),
    DN(___,0,0x000),
    DN(B_4,7,0x000),
    DN(___,0,0x000),
    DN(___,0,0xC01),
    DN(___,0,0x000),
    DN(___,0,0x000),
    DN(___,0,0x000),
    DN(G_4,7,0x000),
    DN(___,0,0x000),
    DN(D_5,7,0x000),
    DN(___,0,0x000),
    DN(___,0,0xC01),
    DN(___,0,0x000),
    DN(D_5,7,0x000),
    DN(___,0,0x000),
    DN(D_5,7,0x000),
    DN(___,0,0x000),
    DN(G_4,7,0x000),
    DN(___,0,0x000),
    DN(___,0,0xC01),
    DN(___,0,0x000),
    DN(___,0,0x000),
    DN(___,0,0x000),
    DN(F_4,7,0x000),
    DN(___,0,0x000),
    DN(G_4,7,0x000),
    DN(___,0,0x000),
    DN(___,0,0xC01),
    DN(___,0,0x000),
};
static const unsigned char P42[] = {
    DN(___,0,0x000),
    DN(___,0,0x000),
    DN(___,0,0x000),
    DN(___,0,0x000),
    DN(D_6,13,0x000),
    DN(___,0,0x000),
    DN(___,0,0x000),
    DN(___,0,0xC03),
    DN(D_6,13,0x000),
    DN(___,0,0x000),
    DN(___,0,0x000),
    DN(___,0,0xC03),
    DN(D_5,9,0x000),
    DN(___,0,0x000),
    DN(___,0,0xC00),
    DN(___,0,0x000),
    DN(___,0,0x000),
    DN(___,0,0x000),
    DN(___,0,0x000),
    DN(___,0,0x000),
    DN(___,0,0x000),
    DN(___,0,0x000),
    DN(___,0,0x000),
    DN(___,0,0x000),
    DN(___,0,0x000),
    DN(___,0,0x000),
    DN(___,0,0x000),
    DN(___,0,0x000),
    DN(___,0,0x000),
    DN(___,0,0x000),
    DN(___,0,0x000),
    DN(___,0,0x000),
    DN(___,0,0x000),
    DN(___,0,0x000),
    DN(G_7,2,0x000),
    DN(___,0,0x000),
    DN(G_7,2,0x000),
    DN(D_7,12,0xC07),
    DN(D_7,2,0x000),
    DN(D_7,12,0xC03),
    DN(D_7,2,0x000),
    DN(D_7,12,0xC07),
    DN(G_6,2,0x000),
    DN(D_7,12,0xC03),
    DN(C_7,2,0x000),
    DN(___,0,0x000),
    DN(Cs7,2,0x000),
    DN(___,0,0x000),
    DN(D_7,2,0x000),
    DN(___,0,0x000),
    DN(G_6,2,0x000),
    DN(___,0,0x000),
    DN(G_6,2,0x000),
    DN(___,0,0x000),
    DN(G_6,2,0xC07),
    DN(___,0,0x000),
    DN(G_6,2,0xC03),
    DN(___,0,0x000),
    DN(G_6,2,0xC01),
    DN(___,0,0x000),
    DN(___,0,0x000),
    DN(___,0,0x000),
    DN(___,0,0x000),
    DN(___,0,0x000),
};
static const unsigned char P43[] = {
    DN(D_6,6,0x000),
    DN(___,0,0x000),
    DN(D_7,6,0x000),
    DN(___,0,0x000),
    DN(D_6,6,0x000),
    DN(___,0,0x000),
    DN(D_7,6,0x000),
    DN(___,0,0x000),
    DN(D_6,6,0x000),
    DN(___,0,0x000),
    DN(D_7,6,0x000),
    DN(___,0,0x000),
    DN(D_6,6,0x000),
    DN(___,0,0x000),
    DN(D_7,6,0x000),
    DN(___,0,0x000),
    DN(D_6,6,0x000),
    DN(___,0,0x000),
    DN(C_7,6,0x000),
    DN(___,0,0x000),
    DN(C_6,6,0x000),
    DN(___,0,0x000),
    DN(C_7,6,0x000),
    DN(___,0,0x000),
    DN(A_5,6,0x000),
    DN(___,0,0x000),
    DN(C_7,6,0x000),
    DN(___,0,0x000),
    DN(D_5,6,0x000),
    DN(___,0,0x000),
    DN(C_7,6,0x000),
    DN(___,0,0x000),
    DN(B_5,6,0x000),
    DN(___,0,0x000),
    DN(B_6,6,0x000),
    DN(___,0,0x000),
    DN(B_5,6,0x000),
    DN(___,0,0x000),
    DN(B_6,6,0x000),
    DN(___,0,0x000),
    DN(B_5,6,0x000),
    DN(___,0,0x000),
    DN(B_6,6,0x000),
    DN(___,0,0x000),
    DN(C_6,6,0x000),
    DN(___,0,0x000),
    DN(Cs6,6,0x000),
    DN(___,0,0x000),
    DN(D_6,6,0x000),
    DN(___,0,0x000),
    DN(D_7,6,0x000),
    DN(___,0,0x000),
    DN(D_6,6,0x000),
    DN(___,0,0x000),
    DN(D_7,6,0x000),
    DN(___,0,0x000),
    DN(D_6,6,0x000),
    DN(___,0,0x000),
    DN(D_7,6,0x000),
    DN(___,0,0x000),
    DN(D_6,6,0x000),
    DN(___,0,0x000),
    DN(D_7,6,0x000),
    DN(___,0,0x000),
};
static const unsigned char P44[] = {
    DN(D_4,7,0x000),
    DN(___,0,0x000),
    DN(___,0,0x000),
    DN(___,0,0x000),
    DN(A_4,7,0x000),
    DN(___,0,0x000),
    DN(___,0,0xC01),
    DN(___,0,0x000),
    DN(___,0,0x000),
    DN(___,0,0x000),
    DN(D_4,7,0x000),
    DN(___,0,0x000),
    DN(C_5,7,0x000),
    DN(___,0,0x000),
    DN(___,0,0xC01),
    DN(___,0,0x000),
    DN(D_4,7,0x000),
    DN(___,0,0x000),
    DN(D_4,7,0x000),
    DN(___,0,0x000),
    DN(C_5,7,0x000),
    DN(___,0,0x000),
    DN(___,0,0xC01),
    DN(___,0,0x000),
    DN(___,0,0x000),
    DN(___,0,0x000),
    DN(D_4,7,0x000),
    DN(___,0,0x000),
    DN(B_4,7,0x000),
    DN(___,0,0x000),
    DN(___,0,0xC01),
    DN(___,0,0x000),
    DN(G_4,7,0x000),
    DN(___,0,0x000),
    DN(G_4,7,0x000),
    DN(___,0,0x000),
    DN(B_4,7,0x000),
    DN(___,0,0x000),
    DN(___,0,0xC01),
    DN(___,0,0x000),
    DN(___,0,0x000),
    DN(___,0,0x000),
    DN(G_4,7,0x000),
    DN(___,0,0x000),
    DN(B_4,7,0x000),
    DN(___,0,0x000),
    DN(Cs5,7,0x000),
    DN(___,0,0x000),
    DN(D_5,7,0x000),
    DN(___,0,0x000),
    DN(D_5,7,0x000),
    DN(___,0,0x000),
    DN(G_4,7,0x000),
    DN(___,0,0x000),
    DN(___,0,0xC01),
    DN(___,0,0x000),
    DN(___,0,0x000),
    DN(___,0,0x000),
    DN(___,0,0x000),
    DN(___,0,0x000),
    DN(___,0,0x000),
    DN(___,0,0x000),
    DN(___,0,0x000),
    DN(___,0,0x000),
};
static const unsigned char P47[] = {
    DN(D_6,6,0x000),
    DN(___,0,0x000),
    DN(D_7,6,0x000),
    DN(___,0,0x000),
    DN(D_6,6,0x000),
    DN(___,0,0x000),
    DN(D_7,6,0x000),
    DN(___,0,0x000),
    DN(D_6,6,0x000),
    DN(___,0,0x000),
    DN(D_7,6,0x000),
    DN(___,0,0x000),
    DN(D_6,6,0x000),
    DN(___,0,0x000),
    DN(D_7,6,0x000),
    DN(___,0,0x000),
    DN(D_6,6,0x000),
    DN(___,0,0x000),
    DN(C_7,6,0x000),
    DN(___,0,0x000),
    DN(C_6,6,0x000),
    DN(___,0,0x000),
    DN(C_7,6,0x000),
    DN(___,0,0x000),
    DN(A_5,6,0x000),
    DN(___,0,0x000),
    DN(C_7,6,0x000),
    DN(___,0,0x000),
    DN(D_5,6,0x000),
    DN(___,0,0x000),
    DN(C_7,6,0x000),
    DN(___,0,0x000),
    DN(___,0,0x000),
    DN(___,0,0x000),
    DN(G_7,2,0x000),
    DN(___,0,0x000),
    DN(G_7,2,0x000),
    DN(___,0,0x000),
    DN(D_7,2,0x000),
    DN(___,0,0x000),
    DN(D_7,2,0x000),
    DN(___,0,0x000),
    DN(G_6,2,0x000),
    DN(___,0,0x000),
    DN(G_6,2,0x000),
    DN(___,0,0x000),
    DN(F_7,2,0x000),
    DN(___,0,0x000),
    DN(F_7,2,0x000),
    DN(___,0,0x000),
    DN(G_7,2,0x000),
    DN(___,0,0x000),
    DN(G_7,2,0x000),
    DN(___,0,0x000),
    DN(F_7,2,0x000),
    DN(___,0,0x000),
    DN(F_7,2,0x000),
    DN(___,0,0x000),
    DN(G_7,2,0x000),
    DN(___,0,0x000),
    DN(G_7,2,0x000),
    DN(___,0,0x000),
    DN(___,0,0x000),
    DN(___,0,0x000),
};
static const unsigned char P50[] = {
    DN(D_5,2,0x000),
    DN(___,0,0x000),
    DN(___,0,0x000),
    DN(___,0,0x000),
    DN(___,0,0x000),
    DN(___,0,0x000),
    DN(A_5,2,0x000),
    DN(___,0,0x000),
    DN(C_6,2,0x000),
    DN(___,0,0x000),
    DN(___,0,0x000),
    DN(___,0,0x000),
    DN(D_6,2,0x000),
    DN(___,0,0x000),
    DN(A_4,2,0x000),
    DN(___,0,0x000),
    DN(___,0,0x000),
    DN(___,0,0x000),
    DN(A_4,2,0x000),
    DN(___,0,0x000),
    DN(___,0,0x000),
    DN(___,0,0x000),
    DN(E_5,2,0x000),
    DN(___,0,0x000),
    DN(G_5,2,0x000),
    DN(___,0,0x000),
    DN(___,0,0x000),
    DN(___,0,0x000),
    DN(A_5,2,0x000),
    DN(___,0,0x000),
    DN(___,0,0x000),
    DN(___,0,0x000),
    DN(D_5,2,0x000),
    DN(___,0,0x000),
    DN(___,0,0x000),
    DN(___,0,0x000),
    DN(D_5,2,0x000),
    DN(___,0,0x000),
    DN(A_5,2,0x000),
    DN(___,0,0x000),
    DN(C_6,2,0x000),
    DN(___,0,0x000),
    DN(___,0,0x000),
    DN(___,0,0x000),
    DN(D_6,2,0x000),
    DN(___,0,0x000),
    DN(G_5,2,0x000),
    DN(___,0,0x000),
    DN(___,0,0x000),
    DN(___,0,0x000),
    DN(G_5,2,0x000),
    DN(___,0,0x000),
    DN(___,0,0x000),
    DN(___,0,0x000),
    DN(D_6,2,0x000),
    DN(___,0,0x000),
    DN(F_6,2,0x000),
    DN(___,0,0x000),
    DN(___,0,0x000),
    DN(___,0,0x000),
    DN(G_6,2,0x000),
    DN(___,0,0x000),
    DN(___,0,0x000),
    DN(___,0,0x000),
};
static const unsigned char P51[] = {
    DN(Fs3,2,0x269),
    DN(D_4,15,0x000),
    DN(___,0,0x000),
    DN(___,0,0x000),
    DN(___,0,0x000),
    DN(D_5,9,0xC02),
    DN(___,0,0x000),
    DN(___,0,0x000),
    DN(___,0,0x000),
    DN(___,0,0x000),
    DN(___,0,0x000),
    DN(A_5,9,0xC02),
    DN(___,0,0x000),
    DN(C_6,9,0xC02),
    DN(Fs3,2,0x269),
    DN(D_4,15,0x000),
    DN(Fs3,2,0x269),
    DN(D_6,9,0xC02),
    DN(___,0,0x000),
    DN(Fs3,2,0x269),
    DN(D_4,15,0x000),
    DN(___,0,0x000),
    DN(Fs3,2,0x269),
    DN(A_4,9,0xC02),
    DN(___,0,0x000),
    DN(___,0,0x000),
    DN(___,0,0x000),
    DN(E_5,9,0xC02),
    DN(___,0,0x000),
    DN(G_5,9,0xC02),
    DN(Fs3,2,0x269),
    DN(D_4,15,0x000),
    DN(Fs3,2,0x269),
    DN(A_5,9,0xC02),
    DN(___,0,0x000),
    DN(___,0,0x000),
    DN(___,0,0x000),
    DN(D_5,9,0xC02),
    DN(___,0,0x000),
    DN(___,0,0x000),
    DN(___,0,0x000),
    DN(D_5,9,0xC02),
    DN(___,0,0x000),
    DN(A_5,9,0xC02),
    DN(___,0,0x000),
    DN(C_6,9,0xC02),
    DN(Fs3,2,0x269),
    DN(D_4,15,0x000),
    DN(Fs3,2,0x269),
    DN(D_6,9,0xC02),
    DN(___,0,0x000),
    DN(Fs3,2,0x269),
    DN(D_4,15,0x000),
    DN(___,0,0x000),
    DN(Fs3,2,0x269),
    DN(G_5,9,0xC02),
    DN(___,0,0x000),
    DN(___,0,0x000),
    DN(___,0,0x000),
    DN(D_6,9,0xC02),
    DN(___,0,0x000),
    DN(F_6,9,0xC02),
    DN(___,0,0x000),
    DN(___,0,0x000),
};
static const unsigned char P54[] = {
    DN(F_5,5,0x000),
    DN(___,0,0x000),
    DN(___,0,0x000),
    DN(___,0,0x000),
    DN(Fs5,2,0x000),
    DN(___,0,0x000),
    DN(Gs5,2,0x000),
    DN(___,0,0x000),
    DN(Fs5,2,0x000),
    DN(___,0,0x000),
    DN(Gs5,2,0x000),
    DN(___,0,0x000),
    DN(Fs5,2,0x000),
    DN(___,0,0x000),
    DN(Gs5,2,0x000),
    DN(___,0,0x000),
    DN(G_5,3,0x000),
    DN(___,0,0x000),
    DN(Gs5,2,0x000),
    DN(___,0,0x000),
    DN(Fs5,2,0x000),
    DN(___,0,0x000),
    DN(Gs5,2,0x000),
    DN(___,0,0x000),
    DN(Fs5,2,0x000),
    DN(___,0,0x000),
    DN(Gs5,2,0x000),
    DN(___,0,0x000),
    DN(Fs5,2,0x000),
    DN(___,0,0x000),
    DN(G_5,3,0x000),
    DN(___,0,0x000),
    DN(G_5,3,0x000),
    DN(___,0,0x000),
    DN(Gs5,2,0x000),
    DN(___,0,0x000),
    DN(G_5,3,0x000),
    DN(___,0,0x000),
    DN(Gs5,2,0x000),
    DN(___,0,0x000),
    DN(G_5,3,0x000),
    DN(___,0,0x000),
    DN(Gs5,2,0x000),
    DN(___,0,0x000),
    DN(F_5,3,0x000),
    DN(___,0,0x000),
    DN(Gs5,2,0x000),
    DN(___,0,0x000),
    DN(E_5,3,0x000),
    DN(___,0,0x000),
    DN(___,0,0x000),
    DN(___,0,0x000),
    DN(___,0,0x000),
    DN(___,0,0x000),
    DN(___,0,0x000),
    DN(___,0,0x000),
    DN(___,0,0x000),
    DN(___,0,0x000),
    DN(___,0,0x000),
    DN(___,0,0x000),
    DN(Gs5,2,0xC01),
    DN(___,0,0xC04),
    DN(___,0,0xC07),
    DN(___,0,0xC09),
};
static const unsigned char P55[] = {
    DN(D_6,13,0x000),
    DN(___,0,0x000),
    DN(___,0,0x000),
    DN(___,0,0x000),
    DN(___,0,0xA07),
    DN(___,0,0x20C),
    DN(___,0,0x20C),
    DN(___,0,0x20C),
    DN(___,0,0x20C),
    DN(___,0,0xC00),
    DN(___,0,0x000),
    DN(___,0,0x000),
    DN(___,0,0x000),
    DN(___,0,0x000),
    DN(___,0,0x000),
    DN(___,0,0x000),
    DN(___,0,0x000),
    DN(___,0,0x000),
    DN(___,0,0x000),
    DN(___,0,0x000),
    DN(___,0,0x000),
    DN(___,0,0x000),
    DN(___,0,0x000),
    DN(___,0,0x000),
    DN(___,0,0x000),
    DN(___,0,0x000),
    DN(___,0,0x000),
    DN(___,0,0x000),
    DN(___,0,0x000),
    DN(___,0,0x000),
    DN(___,0,0x000),
    DN(___,0,0x000),
    DN(___,0,0x000),
    DN(___,0,0x000),
    DN(___,0,0x000),
    DN(___,0,0x000),
    DN(___,0,0x000),
    DN(___,0,0x000),
    DN(___,0,0x000),
    DN(___,0,0x000),
    DN(___,0,0x000),
    DN(___,0,0x000),
    DN(___,0,0x000),
    DN(___,0,0x000),
    DN(___,0,0x000),
    DN(___,0,0x000),
    DN(___,0,0x000),
    DN(___,0,0x000),
    DN(___,0,0x000),
    DN(___,0,0x000),
    DN(___,0,0x000),
    DN(___,0,0x000),
    DN(___,0,0x000),
    DN(___,0,0x000),
    DN(___,0,0x000),
    DN(___,0,0x000),
    DN(___,0,0x000),
    DN(___,0,0x000),
    DN(___,0,0x000),
    DN(___,0,0x000),
    DN(___,0,0x000),
    DN(___,0,0x000),
    DN(___,0,0x000),
    DN(___,0,0x000),
};
static const unsigned char P56[] = {
    DN(Fs3,2,0x269),
    DN(D_4,15,0x000),
    DN(___,0,0x000),
    DN(___,0,0x000),
    DN(___,0,0x000),
    DN(___,0,0x000),
    DN(___,0,0x000),
    DN(___,0,0x000),
    DN(___,0,0x000),
    DN(___,0,0x000),
    DN(___,0,0x000),
    DN(___,0,0x000),
    DN(___,0,0x000),
    DN(___,0,0x000),
    DN(___,0,0x000),
    DN(___,0,0x000),
    DN(___,0,0x000),
    DN(___,0,0x000),
    DN(___,0,0x000),
    DN(___,0,0x000),
    DN(___,0,0x000),
    DN(___,0,0x000),
    DN(___,0,0x000),
    DN(___,0,0x000),
    DN(___,0,0x000),
    DN(___,0,0x000),
    DN(___,0,0x000),
    DN(___,0,0x000),
    DN(___,0,0x000),
    DN(___,0,0x000),
    DN(___,0,0x000),
    DN(___,0,0x000),
    DN(___,0,0x000),
    DN(___,0,0x000),
    DN(___,0,0x000),
    DN(___,0,0x000),
    DN(___,0,0x000),
    DN(___,0,0x000),
    DN(___,0,0x000),
    DN(___,0,0x000),
    DN(___,0,0x000),
    DN(___,0,0x000),
    DN(___,0,0x000),
    DN(___,0,0x000),
    DN(___,0,0x000),
    DN(___,0,0x000),
    DN(___,0,0x000),
    DN(___,0,0x000),
    DN(___,0,0x000),
    DN(___,0,0x000),
    DN(___,0,0x000),
    DN(___,0,0x000),
    DN(___,0,0x000),
    DN(___,0,0x000),
    DN(___,0,0x000),
    DN(___,0,0x000),
    DN(___,0,0x000),
    DN(___,0,0x000),
    DN(___,0,0x000),
    DN(___,0,0x000),
    DN(___,0,0x000),
    DN(___,0,0x000),
    DN(___,0,0x000),
    DN(___,0,0x000),
};
static const unsigned char P57[] = {
    DN(D_4,7,0x000),
    DN(___,0,0x000),
    DN(___,0,0x000),
    DN(___,0,0x000),
    DN(___,0,0xC00),
    DN(___,0,0x000),
    DN(___,0,0x000),
    DN(___,0,0x000),
    DN(___,0,0x000),
    DN(___,0,0x000),
    DN(___,0,0x000),
    DN(___,0,0x000),
    DN(___,0,0x000),
    DN(___,0,0x000),
    DN(___,0,0x000),
    DN(___,0,0x000),
    DN(___,0,0x000),
    DN(___,0,0x000),
    DN(___,0,0x000),
    DN(___,0,0x000),
    DN(___,0,0x000),
    DN(___,0,0x000),
    DN(___,0,0x000),
    DN(___,0,0x000),
    DN(___,0,0x000),
    DN(___,0,0x000),
    DN(___,0,0x000),
    DN(___,0,0x000),
    DN(___,0,0x000),
    DN(___,0,0x000),
    DN(___,0,0x000),
    DN(___,0,0x000),
    DN(___,0,0x000),
    DN(___,0,0x000),
    DN(___,0,0x000),
    DN(___,0,0x000),
    DN(___,0,0x000),
    DN(___,0,0x000),
    DN(___,0,0x000),
    DN(___,0,0x000),
    DN(___,0,0x000),
    DN(___,0,0x000),
    DN(___,0,0x000),
    DN(___,0,0x000),
    DN(___,0,0x000),
    DN(___,0,0x000),
    DN(___,0,0x000),
    DN(___,0,0x000),
    DN(___,0,0x000),
    DN(___,0,0x000),
    DN(___,0,0x000),
    DN(___,0,0x000),
    DN(___,0,0x000),
    DN(___,0,0x000),
    DN(___,0,0x000),
    DN(___,0,0x000),
    DN(___,0,0x000),
    DN(___,0,0x000),
    DN(___,0,0x000),
    DN(___,0,0x000),
    DN(___,0,0x000),
    DN(___,0,0x000),
    DN(___,0,0x000),
    DN(___,0,0x000),
};
static const unsigned char P58[] = {
    DN(F_5,5,0x000),
    DN(___,0,0x000),
    DN(___,0,0x000),
    DN(___,0,0x000),
    DN(___,0,0x000),
    DN(___,0,0x000),
    DN(___,0,0x000),
    DN(___,0,0x000),
    DN(___,0,0x000),
    DN(___,0,0x000),
    DN(___,0,0x000),
    DN(___,0,0x000),
    DN(___,0,0x000),
    DN(___,0,0x000),
    DN(___,0,0x000),
    DN(___,0,0x000),
    DN(___,0,0xD01),
    DN(___,0,0x000),
    DN(___,0,0x000),
    DN(___,0,0x000),
    DN(___,0,0x000),
    DN(___,0,0x000),
    DN(___,0,0x000),
    DN(___,0,0x000),
    DN(___,0,0x000),
    DN(___,0,0x000),
    DN(___,0,0x000),
    DN(___,0,0x000),
    DN(___,0,0x000),
    DN(___,0,0x000),
    DN(___,0,0x000),
    DN(___,0,0x000),
    DN(___,0,0x000),
    DN(___,0,0x000),
    DN(___,0,0x000),
    DN(___,0,0x000),
    DN(___,0,0x000),
    DN(___,0,0x000),
    DN(___,0,0x000),
    DN(___,0,0x000),
    DN(___,0,0x000),
    DN(___,0,0x000),
    DN(___,0,0x000),
    DN(___,0,0x000),
    DN(___,0,0x000),
    DN(___,0,0x000),
    DN(___,0,0x000),
    DN(___,0,0x000),
    DN(___,0,0x000),
    DN(___,0,0x000),
    DN(___,0,0x000),
    DN(___,0,0x000),
    DN(___,0,0x000),
    DN(___,0,0x000),
    DN(___,0,0x000),
    DN(___,0,0x000),
    DN(___,0,0x000),
    DN(___,0,0x000),
    DN(___,0,0x000),
    DN(___,0,0x000),
    DN(___,0,0x000),
    DN(___,0,0x000),
    DN(___,0,0x000),
    DN(___,0,0x000),
};
static const unsigned char P59[] = {
    DN(D_5,13,0x000),
    DN(___,0,0x000),
    DN(___,0,0x000),
    DN(___,0,0xC02),
    DN(D_5,13,0x000),
    DN(___,0,0x000),
    DN(A_5,13,0x000),
    DN(___,0,0x000),
    DN(C_6,13,0x000),
    DN(___,0,0x000),
    DN(___,0,0x000),
    DN(___,0,0xC04),
    DN(D_6,13,0x000),
    DN(___,0,0x000),
    DN(A_4,13,0x000),
    DN(___,0,0x000),
    DN(___,0,0x000),
    DN(___,0,0xC02),
    DN(A_4,13,0x000),
    DN(___,0,0x000),
    DN(___,0,0x000),
    DN(A_4,13,0xC02),
    DN(E_5,13,0x000),
    DN(___,0,0x000),
    DN(G_5,13,0x000),
    DN(___,0,0x000),
    DN(___,0,0x000),
    DN(___,0,0xC02),
    DN(A_5,13,0x000),
    DN(___,0,0x000),
    DN(A_6,13,0x20C),
    DN(A_5,13,0x207),
    DN(D_5,13,0x000),
    DN(___,0,0x000),
    DN(___,0,0x000),
    DN(___,0,0xC02),
    DN(D_5,13,0x000),
    DN(___,0,0x000),
    DN(A_5,13,0x000),
    DN(___,0,0x000),
    DN(C_6,13,0x000),
    DN(___,0,0x000),
    DN(___,0,0x000),
    DN(___,0,0xC04),
    DN(D_6,13,0x000),
    DN(___,0,0x000),
    DN(G_5,13,0x000),
    DN(___,0,0x000),
    DN(___,0,0x000),
    DN(___,0,0xC02),
    DN(G_5,13,0x000),
    DN(___,0,0x000),
    DN(___,0,0x000),
    DN(___,0,0xC02),
    DN(D_6,13,0x000),
    DN(___,0,0x000),
    DN(F_6,13,0x000),
    DN(___,0,0x000),
    DN(___,0,0x000),
    DN(___,0,0x000),
    DN(G_6,13,0x000),
    DN(___,0,0x000),
    DN(___,0,0x000),
    DN(C_6,13,0x000),
};
static const unsigned char P60[] = {
    DN(D_5,13,0x000),
    DN(___,0,0x000),
    DN(___,0,0x000),
    DN(___,0,0xC02),
    DN(D_5,13,0x000),
    DN(___,0,0x000),
    DN(A_5,13,0x000),
    DN(___,0,0x000),
    DN(C_6,13,0x000),
    DN(___,0,0x000),
    DN(___,0,0x000),
    DN(___,0,0xC04),
    DN(D_6,13,0x000),
    DN(___,0,0x000),
    DN(A_4,13,0x000),
    DN(___,0,0x000),
    DN(___,0,0x000),
    DN(___,0,0xC02),
    DN(A_4,13,0x000),
    DN(___,0,0x000),
    DN(___,0,0x000),
    DN(A_4,13,0xC02),
    DN(E_5,13,0x000),
    DN(___,0,0x000),
    DN(G_5,13,0x000),
    DN(___,0,0x000),
    DN(___,0,0x000),
    DN(___,0,0xC02),
    DN(A_5,13,0x000),
    DN(___,0,0x000),
    DN(A_6,13,0x20C),
    DN(A_5,13,0x207),
    DN(D_5,13,0x000),
    DN(___,0,0xE05),
    DN(D_5,13,0x000),
    DN(___,0,0xE05),
    DN(___,0,0x000),
    DN(___,0,0x000),
    DN(F_5,13,0x000),
    DN(___,0,0xE05),
    DN(F_5,13,0x000),
    DN(___,0,0xE05),
    DN(___,0,0x000),
    DN(___,0,0x000),
    DN(G_5,13,0x000),
    DN(___,0,0xE05),
    DN(G_5,13,0x000),
    DN(___,0,0xE05),
    DN(___,0,0x000),
    DN(___,0,0x000),
    DN(A_5,13,0x000),
    DN(___,0,0xE05),
    DN(A_5,13,0x000),
    DN(___,0,0xE05),
    DN(___,0,0x000),
    DN(___,0,0x000),
    DN(C_6,13,0x000),
    DN(___,0,0x000),
    DN(___,0,0x000),
    DN(___,0,0x000),
    DN(Cs6,13,0x000),
    DN(___,0,0x000),
    DN(___,0,0x000),
    DN(___,0,0x000),
};

static const unsigned char itSquareSP8[] = {
    DN(___,0,0x9C0),
    DN(___,0,0x940),
    DN(___,0,0x940),
    DN(___,0,0x980),
    DN(___,0,0xC07),
    DN(___,0,0x000),
    DN(___,0,0x000),
    DN(___,0,0x000),
    DN(___,0,0x000),
    DN(___,0,0x000),
    DN(___,0,0x000),
    DN(___,0,0x000),
    DN(___,0,0x000),
    DN(___,0,0x000),
    DN(___,0,0x000),
    DN(___,0,0x000),
    DN(___,0,0x000),
    DN(___,0,0x000),
    DN(___,0,0x000),
    DN(___,0,0x000),
    DN(___,0,0x000),
    DN(___,0,0x000),
    DN(___,0,0x000),
    DN(___,0,0x000),
    DN(___,0,0x000),
    DN(___,0,0x000),
    DN(___,0,0x000),
    DN(___,0,0x000),
    DN(___,0,0x000),
    DN(___,0,0x000),
    DN(___,0,0x000),
    DN(___,1,0x000),
};
static const unsigned char itSquareSP10[] = {
    DN(___,0,0x101),
    DN(___,0,0x101),
    DN(___,0,0x101),
    DN(___,0,0x101),
    DN(___,0,0x201),
    DN(___,0,0x201),
    DN(___,0,0x201),
    DN(___,1,0x201),
    DN(___,0,0x000),
    DN(___,0,0x000),
    DN(___,0,0x000),
    DN(___,0,0x000),
    DN(___,0,0x000),
    DN(___,0,0x000),
    DN(___,0,0x000),
    DN(___,0,0x000),
    DN(___,0,0x000),
    DN(___,0,0x000),
    DN(___,0,0x000),
    DN(___,0,0x000),
    DN(___,0,0x000),
    DN(___,0,0x000),
    DN(___,0,0x000),
    DN(___,0,0x000),
    DN(___,0,0x000),
    DN(___,0,0x000),
    DN(___,0,0x000),
    DN(___,0,0x000),
    DN(___,0,0x000),
    DN(___,0,0x000),
    DN(___,0,0x000),
    DN(___,1,0x000),
};
static const unsigned char itSquareSP13[] = {
    DN(___,0,0x980),
    DN(___,0,0x940),
    DN(___,0,0x900),
    DN(___,0,0x940),
    DN(___,0,0x980),
    DN(___,0,0x940),
    DN(___,0,0x900),
    DN(___,0,0x940),
    DN(___,0,0x980),
    DN(___,0,0x940),
    DN(___,0,0x900),
    DN(___,0,0x940),
    DN(___,0,0x980),
    DN(___,0,0x940),
    DN(___,0,0x900),
    DN(___,0,0x940),
    DN(___,0,0x980),
    DN(___,0,0x940),
    DN(___,0,0x900),
    DN(___,0,0x940),
    DN(___,0,0x980),
    DN(___,0,0x940),
    DN(___,0,0x900),
    DN(___,0,0x940),
    DN(___,0,0x980),
    DN(___,0,0x940),
    DN(___,0,0x900),
    DN(___,0,0x940),
    DN(___,0,0x980),
    DN(___,0,0x940),
    DN(___,0,0x900),
    DN(___,1,0x940),
};
static const unsigned char itWaveSP14[] = {
    DN(55,0,0x000),
    DN(51,0,0x000),
    DN(46,0,0x000),
    DN(41,0,0x000),
    DN(36,0,0x000),
    DN(___,0,0x000),
    DN(___,0,0x000),
    DN(___,0,0x000),
    DN(___,0,0x000),
    DN(___,0,0x000),
    DN(___,0,0x000),
    DN(___,0,0x000),
    DN(___,0,0x000),
    DN(___,0,0x000),
    DN(___,0,0x000),
    DN(___,0,0x000),
    DN(___,0,0x000),
    DN(___,0,0x000),
    DN(___,0,0x000),
    DN(___,0,0x000),
    DN(___,0,0x000),
    DN(___,0,0x000),
    DN(___,0,0x000),
    DN(___,0,0x000),
    DN(___,0,0x000),
    DN(___,0,0x000),
    DN(___,0,0x000),
    DN(___,0,0x000),
    DN(___,0,0x000),
    DN(___,0,0x000),
    DN(___,0,0x000),
    DN(___,1,0x000),
};
static const unsigned char itWaveSP15[] = {
    DN(46,0,0x000),
    DN(39,0,0x000),
    DN(36,0,0x000),
    DN(___,0,0x000),
    DN(___,0,0x000),
    DN(___,0,0x000),
    DN(___,0,0x000),
    DN(___,0,0x000),
    DN(___,0,0x000),
    DN(___,0,0x000),
    DN(___,0,0x000),
    DN(___,0,0x000),
    DN(___,0,0x000),
    DN(___,0,0x000),
    DN(___,0,0x000),
    DN(___,0,0x000),
    DN(___,0,0x000),
    DN(___,0,0x000),
    DN(___,0,0x000),
    DN(___,0,0x000),
    DN(___,0,0x000),
    DN(___,0,0x000),
    DN(___,0,0x000),
    DN(___,0,0x000),
    DN(___,0,0x000),
    DN(___,0,0x000),
    DN(___,0,0x000),
    DN(___,0,0x000),
    DN(___,0,0x000),
    DN(___,0,0x000),
    DN(___,0,0x000),
    DN(___,1,0x000),
};
static const unsigned char itNoiseSP1[] = {
    DN(68,0,0x000),
    DN(68,2,0x000),
    DN(___,0,0x000),
    DN(___,0,0x000),
    DN(___,0,0x000),
    DN(___,0,0x000),
    DN(___,0,0x000),
    DN(___,0,0x000),
    DN(___,0,0x000),
    DN(___,0,0x000),
    DN(___,0,0x000),
    DN(___,0,0x000),
    DN(___,0,0x000),
    DN(___,0,0x000),
    DN(___,0,0x000),
    DN(___,0,0x000),
    DN(___,0,0x000),
    DN(___,0,0x000),
    DN(___,0,0x000),
    DN(___,0,0x000),
    DN(___,0,0x000),
    DN(___,0,0x000),
    DN(___,0,0x000),
    DN(___,0,0x000),
    DN(___,0,0x000),
    DN(___,0,0x000),
    DN(___,0,0x000),
    DN(___,0,0x000),
    DN(___,0,0x000),
    DN(___,0,0x000),
    DN(___,0,0x000),
    DN(___,1,0x000),
};
static const unsigned char itNoiseSP2[] = {
    DN(65,0,0x000),
    DN(67,2,0x000),
    DN(___,0,0x000),
    DN(___,0,0x000),
    DN(___,0,0x000),
    DN(___,0,0x000),
    DN(___,0,0x000),
    DN(___,0,0x000),
    DN(___,0,0x000),
    DN(___,0,0x000),
    DN(___,0,0x000),
    DN(___,0,0x000),
    DN(___,0,0x000),
    DN(___,0,0x000),
    DN(___,0,0x000),
    DN(___,0,0x000),
    DN(___,0,0x000),
    DN(___,0,0x000),
    DN(___,0,0x000),
    DN(___,0,0x000),
    DN(___,0,0x000),
    DN(___,0,0x000),
    DN(___,0,0x000),
    DN(___,0,0x000),
    DN(___,0,0x000),
    DN(___,0,0x000),
    DN(___,0,0x000),
    DN(___,0,0x000),
    DN(___,0,0x000),
    DN(___,0,0x000),
    DN(___,0,0x000),
    DN(___,1,0x000),
};
static const unsigned char itNoiseSP3[] = {
    DN(49,0,0x000),
    DN(60,0,0x000),
    DN(___,0,0x000),
    DN(___,0,0x000),
    DN(___,0,0x000),
    DN(___,0,0x000),
    DN(___,0,0x000),
    DN(___,0,0x000),
    DN(___,0,0x000),
    DN(___,0,0x000),
    DN(___,0,0x000),
    DN(___,0,0x000),
    DN(___,0,0x000),
    DN(___,0,0x000),
    DN(___,0,0x000),
    DN(___,0,0x000),
    DN(___,0,0x000),
    DN(___,0,0x000),
    DN(___,0,0x000),
    DN(___,0,0x000),
    DN(___,0,0x000),
    DN(___,0,0x000),
    DN(___,0,0x000),
    DN(___,0,0x000),
    DN(___,0,0x000),
    DN(___,0,0x000),
    DN(___,0,0x000),
    DN(___,0,0x000),
    DN(___,0,0x000),
    DN(___,0,0x000),
    DN(___,0,0x000),
    DN(___,1,0x000),
};
static const unsigned char itNoiseSP4[] = {
    DN(68,0,0x000),
    DN(68,2,0x000),
    DN(___,0,0x000),
    DN(___,0,0x000),
    DN(___,0,0x000),
    DN(___,0,0x000),
    DN(___,0,0x000),
    DN(___,0,0x000),
    DN(___,0,0x000),
    DN(___,0,0x000),
    DN(___,0,0x000),
    DN(___,0,0x000),
    DN(___,0,0x000),
    DN(___,0,0x000),
    DN(___,0,0x000),
    DN(___,0,0x000),
    DN(___,0,0x000),
    DN(___,0,0x000),
    DN(___,0,0x000),
    DN(___,0,0x000),
    DN(___,0,0x000),
    DN(___,0,0x000),
    DN(___,0,0x000),
    DN(___,0,0x000),
    DN(___,0,0x000),
    DN(___,0,0x000),
    DN(___,0,0x000),
    DN(___,0,0x000),
    DN(___,0,0x000),
    DN(___,0,0x000),
    DN(___,0,0x000),
    DN(___,1,0x000),
};
static const unsigned char itNoiseSP5[] = {
    DN(60,0,0x000),
    DN(60,2,0x000),
    DN(___,0,0x000),
    DN(___,0,0x000),
    DN(___,0,0x000),
    DN(___,0,0x000),
    DN(___,0,0x000),
    DN(___,0,0x000),
    DN(___,0,0x000),
    DN(___,0,0x000),
    DN(___,0,0x000),
    DN(___,0,0x000),
    DN(___,0,0x000),
    DN(___,0,0x000),
    DN(___,0,0x000),
    DN(___,0,0x000),
    DN(___,0,0x000),
    DN(___,0,0x000),
    DN(___,0,0x000),
    DN(___,0,0x000),
    DN(___,0,0x000),
    DN(___,0,0x000),
    DN(___,0,0x000),
    DN(___,0,0x000),
    DN(___,0,0x000),
    DN(___,0,0x000),
    DN(___,0,0x000),
    DN(___,0,0x000),
    DN(___,0,0x000),
    DN(___,0,0x000),
    DN(___,0,0x000),
    DN(___,1,0x000),
};
static const unsigned char* const order1[] = {P0,P4,P8,P12,P16,P20,P24,P28,P34,P38,P42,P38,P50,P50,P59,P60,P55};
static const unsigned char* const order2[] = {P1,P5,P9,P13,P17,P21,P25,P33,P35,P39,P43,P47,P51,P51,P17,P21,P56};
static const unsigned char* const order3[] = {P2,P6,P10,P14,P18,P22,P26,P32,P36,P40,P44,P40,P10,P14,P18,P22,P57};
static const unsigned char* const order4[] = {P3,P7,P7,P54,P19,P23,P27,P27,P19,P19,P19,P19,P7,P54,P19,P23,P58};

static const hUGEDutyInstr_t duty_instruments[] = {
    {0,64,178,0,128},
    {8,154,178,0,128},
    {0,0,244,0,128},
    {0,48,184,0,192},
    {0,112,184,0,192},
    {0,176,184,0,192},
    {0,0,184,0,128},
    {0,192,168,itSquareSP8,128},
    {0,128,184,0,128},
    {0,128,184,itSquareSP10,128},
    {28,128,178,0,192},
    {31,128,179,0,128},
    {7,128,176,itSquareSP13,128},
    {21,96,183,0,192},
    {0,128,8,0,128},
};
static const hUGEWaveInstr_t wave_instruments[] = {
    {128,32,1,0,192},
    {128,32,2,0,192},
    {63,32,3,0,192},
    {128,32,4,0,192},
    {128,32,5,0,192},
    {128,32,6,0,192},
    {0,32,7,0,128},
    {0,32,8,0,128},
    {0,32,9,0,128},
    {0,32,10,0,128},
    {0,32,11,0,128},
    {0,32,12,0,128},
    {0,32,13,0,128},
    {0,32,7,itWaveSP14,128},
    {0,32,7,itWaveSP15,128},
};
static const hUGENoiseInstr_t noise_instruments[] = {
    {145,itNoiseSP1,112,0,0},
    {145,itNoiseSP2,96,0,0},
    {161,itNoiseSP3,0,0,0},
    {146,itNoiseSP4,0,0,0},
    {148,itNoiseSP5,0,0,0},
};

static const unsigned char waves[] = {
    136,136,136,136,136,136,136,136,136,136,136,136,136,136,136,136,
    255,255,0,0,0,0,0,0,0,0,0,0,0,0,0,0,
    255,255,255,255,0,0,0,0,0,0,0,0,0,0,0,0,
    255,255,255,255,255,0,0,0,0,0,0,0,0,0,0,0,
    255,255,255,255,255,255,0,0,0,0,0,0,0,0,0,0,
    255,255,255,255,255,255,255,0,0,0,0,0,0,0,0,0,
    255,255,255,255,255,255,255,255,0,0,0,0,0,0,0,0,
    139,187,171,238,205,254,222,237,118,66,67,33,16,35,35,121,
};

const hUGESong_t polargeist = {6, &order_cnt, order1, order2, order3,order4, duty_instruments, wave_instruments, noise_instruments, NULL, waves};
