#include "hUGEDriver.h"
#include <stddef.h>

static const unsigned char order_cnt = 32;

static const unsigned char P0[] = {
    DN(C_5,1,0x000),
    DN(___,0,0x000),
    DN(G_5,1,0x000),
    DN(___,0,0x000),
    DN(C_5,1,0x000),
    DN(___,0,0x000),
    DN(G_5,1,0x000),
    DN(___,0,0x000),
    DN(C_5,1,0x000),
    DN(___,0,0x000),
    DN(G_5,1,0x000),
    DN(___,0,0x000),
    DN(C_5,1,0x000),
    DN(___,0,0x000),
    DN(G_5,1,0x000),
    DN(___,0,0x000),
    DN(G_4,1,0x000),
    DN(___,0,0x000),
    DN(D_5,1,0x000),
    DN(___,0,0x000),
    DN(G_4,1,0x000),
    DN(___,0,0x000),
    DN(D_5,1,0x000),
    DN(___,0,0x000),
    DN(G_4,1,0x000),
    DN(___,0,0x000),
    DN(D_5,1,0x000),
    DN(___,0,0x000),
    DN(G_4,1,0x000),
    DN(___,0,0x000),
    DN(D_5,1,0x000),
    DN(___,0,0x000),
    DN(A_4,1,0x000),
    DN(___,0,0x000),
    DN(E_5,1,0x000),
    DN(___,0,0x000),
    DN(A_4,1,0x000),
    DN(___,0,0x000),
    DN(E_5,1,0x000),
    DN(___,0,0x000),
    DN(A_4,1,0x000),
    DN(___,0,0x000),
    DN(E_5,1,0x000),
    DN(___,0,0x000),
    DN(A_4,1,0x000),
    DN(___,0,0x000),
    DN(E_5,1,0x000),
    DN(___,0,0x000),
    DN(F_4,1,0x000),
    DN(___,0,0x000),
    DN(C_5,1,0x000),
    DN(___,0,0x000),
    DN(F_4,1,0x000),
    DN(___,0,0x000),
    DN(C_5,1,0x000),
    DN(___,0,0x000),
    DN(F_4,1,0x000),
    DN(___,0,0x000),
    DN(C_5,1,0x000),
    DN(___,0,0x000),
    DN(F_4,1,0x000),
    DN(___,0,0x000),
    DN(C_5,1,0x000),
    DN(___,0,0x000),
};
static const unsigned char P6[] = {
    DN(___,0,0x000),
    DN(C_5,5,0x000),
    DN(___,0,0x000),
    DN(G_5,5,0x000),
    DN(___,0,0x000),
    DN(C_5,5,0x000),
    DN(___,0,0x000),
    DN(G_5,5,0x000),
    DN(___,0,0x000),
    DN(C_5,5,0x000),
    DN(___,0,0x000),
    DN(G_5,5,0x000),
    DN(___,0,0x000),
    DN(C_5,5,0x000),
    DN(___,0,0x000),
    DN(G_5,5,0x000),
    DN(___,0,0x000),
    DN(G_4,5,0x000),
    DN(___,0,0x000),
    DN(D_5,5,0x000),
    DN(___,0,0x000),
    DN(G_4,5,0x000),
    DN(___,0,0x000),
    DN(D_5,5,0x000),
    DN(___,0,0x000),
    DN(G_4,5,0x000),
    DN(___,0,0x000),
    DN(D_5,5,0x000),
    DN(___,0,0x000),
    DN(G_4,5,0x000),
    DN(___,0,0x000),
    DN(D_5,5,0x000),
    DN(___,0,0x000),
    DN(A_4,5,0x000),
    DN(___,0,0x000),
    DN(E_5,5,0x000),
    DN(___,0,0x000),
    DN(A_4,5,0x000),
    DN(___,0,0x000),
    DN(E_5,5,0x000),
    DN(___,0,0x000),
    DN(A_4,5,0x000),
    DN(___,0,0x000),
    DN(E_5,5,0x000),
    DN(___,0,0x000),
    DN(A_4,5,0x000),
    DN(___,0,0x000),
    DN(E_5,5,0x000),
    DN(___,0,0x000),
    DN(F_4,5,0x000),
    DN(___,0,0x000),
    DN(C_5,5,0x000),
    DN(___,0,0x000),
    DN(F_4,5,0x000),
    DN(___,0,0x000),
    DN(C_5,5,0x000),
    DN(___,0,0x000),
    DN(F_4,5,0x000),
    DN(___,0,0x000),
    DN(C_5,5,0x000),
    DN(___,0,0x000),
    DN(F_4,5,0x000),
    DN(___,0,0x000),
    DN(C_5,5,0x000),
};
static const unsigned char P11[] = {
    DN(___,0,0xE00),
    DN(___,0,0x000),
    DN(___,0,0x000),
    DN(___,0,0x000),
    DN(___,0,0x000),
    DN(___,0,0x000),
    DN(___,0,0x000),
    DN(___,0,0x000),
    DN(___,0,0x000),
    DN(___,0,0x000),
    DN(___,0,0x000),
    DN(___,0,0x000),
    DN(___,0,0x000),
    DN(___,0,0x000),
    DN(___,0,0x000),
    DN(___,0,0x000),
    DN(___,0,0x000),
    DN(___,0,0x000),
    DN(___,0,0x000),
    DN(___,0,0x000),
    DN(___,0,0x000),
    DN(___,0,0x000),
    DN(___,0,0x000),
    DN(___,0,0x000),
    DN(___,0,0x000),
    DN(___,0,0x000),
    DN(___,0,0x000),
    DN(___,0,0x000),
    DN(___,0,0x000),
    DN(___,0,0x000),
    DN(___,0,0x000),
    DN(___,0,0x000),
    DN(___,0,0x000),
    DN(___,0,0x000),
    DN(___,0,0x000),
    DN(___,0,0x000),
    DN(___,0,0x000),
    DN(___,0,0x000),
    DN(___,0,0x000),
    DN(___,0,0x000),
    DN(___,0,0x000),
    DN(___,0,0x000),
    DN(___,0,0x000),
    DN(___,0,0x000),
    DN(___,0,0x000),
    DN(___,0,0x000),
    DN(___,0,0x000),
    DN(___,0,0x000),
    DN(___,0,0x000),
    DN(___,0,0x000),
    DN(___,0,0x000),
    DN(___,0,0x000),
    DN(___,0,0x000),
    DN(___,0,0x000),
    DN(___,0,0x000),
    DN(___,0,0x000),
    DN(___,0,0x000),
    DN(___,0,0x000),
    DN(___,0,0x000),
    DN(___,0,0x000),
    DN(___,0,0x000),
    DN(___,0,0x000),
    DN(___,0,0x000),
    DN(___,0,0x000),
};
static const unsigned char P14[] = {
    DN(___,0,0x000),
    DN(___,0,0x000),
    DN(___,0,0x000),
    DN(___,0,0x000),
    DN(___,0,0x000),
    DN(___,0,0x000),
    DN(___,0,0x000),
    DN(___,0,0x000),
    DN(___,0,0x000),
    DN(___,0,0x000),
    DN(___,0,0x000),
    DN(___,0,0x000),
    DN(___,0,0x000),
    DN(___,0,0x000),
    DN(___,0,0x000),
    DN(___,0,0x000),
    DN(___,0,0x000),
    DN(___,0,0x000),
    DN(___,0,0x000),
    DN(___,0,0x000),
    DN(___,0,0x000),
    DN(___,0,0x000),
    DN(___,0,0x000),
    DN(___,0,0x000),
    DN(___,0,0x000),
    DN(___,0,0x000),
    DN(___,0,0x000),
    DN(___,0,0x000),
    DN(___,0,0x000),
    DN(___,0,0x000),
    DN(___,0,0x000),
    DN(___,0,0x000),
    DN(___,0,0x000),
    DN(___,0,0x000),
    DN(___,0,0x000),
    DN(___,0,0x000),
    DN(___,0,0x000),
    DN(___,0,0x000),
    DN(___,0,0x000),
    DN(___,0,0x000),
    DN(___,0,0x000),
    DN(___,0,0x000),
    DN(___,0,0x000),
    DN(___,0,0x000),
    DN(___,0,0x000),
    DN(___,0,0x000),
    DN(___,0,0x000),
    DN(___,0,0x000),
    DN(___,0,0x000),
    DN(___,0,0x000),
    DN(___,0,0x000),
    DN(___,0,0x000),
    DN(___,0,0x000),
    DN(___,0,0x000),
    DN(___,0,0x000),
    DN(___,0,0x000),
    DN(___,0,0x000),
    DN(___,0,0x000),
    DN(___,0,0x000),
    DN(___,0,0x000),
    DN(___,0,0x000),
    DN(___,0,0x000),
    DN(___,0,0x000),
    DN(___,0,0x000),
};
static const unsigned char P15[] = {
    DN(___,0,0x000),
    DN(___,0,0x000),
    DN(___,0,0x000),
    DN(___,0,0x000),
    DN(___,0,0x000),
    DN(___,0,0x000),
    DN(___,0,0x000),
    DN(___,0,0x000),
    DN(___,0,0x000),
    DN(___,0,0x000),
    DN(___,0,0x000),
    DN(___,0,0x000),
    DN(___,0,0x000),
    DN(___,0,0x000),
    DN(___,0,0x000),
    DN(___,0,0x000),
    DN(___,0,0x000),
    DN(___,0,0x000),
    DN(___,0,0x000),
    DN(___,0,0x000),
    DN(___,0,0x000),
    DN(___,0,0x000),
    DN(___,0,0x000),
    DN(___,0,0x000),
    DN(___,0,0x000),
    DN(___,0,0x000),
    DN(___,0,0x000),
    DN(___,0,0x000),
    DN(___,0,0x000),
    DN(___,0,0x000),
    DN(___,0,0x000),
    DN(___,0,0x000),
    DN(___,0,0x000),
    DN(___,0,0x000),
    DN(___,0,0x000),
    DN(___,0,0x000),
    DN(___,0,0x000),
    DN(___,0,0x000),
    DN(___,0,0x000),
    DN(___,0,0x000),
    DN(___,0,0x000),
    DN(___,0,0x000),
    DN(___,0,0x000),
    DN(___,0,0x000),
    DN(___,0,0x000),
    DN(___,0,0x000),
    DN(___,0,0x000),
    DN(___,0,0x000),
    DN(___,0,0x000),
    DN(___,0,0x000),
    DN(___,0,0x000),
    DN(___,0,0x000),
    DN(___,0,0x000),
    DN(___,0,0x000),
    DN(___,0,0x000),
    DN(___,0,0x000),
    DN(G_7,1,0x000),
    DN(___,0,0x000),
    DN(___,0,0x000),
    DN(___,0,0x000),
    DN(___,0,0x000),
    DN(___,0,0x000),
    DN(___,0,0x000),
    DN(___,0,0x000),
};
static const unsigned char P7[] = {
    DN(G_4,3,0x05C),
    DN(___,0,0x05C),
    DN(___,0,0x05C),
    DN(___,0,0x05C),
    DN(___,0,0x05C),
    DN(___,0,0x05C),
    DN(___,0,0x05C),
    DN(___,0,0x05C),
    DN(___,0,0x05C),
    DN(___,0,0x05C),
    DN(___,0,0x05C),
    DN(___,0,0x05C),
    DN(___,0,0x05C),
    DN(___,0,0x05C),
    DN(___,0,0x05C),
    DN(___,0,0x05C),
    DN(D_4,3,0x05C),
    DN(___,0,0x05C),
    DN(___,0,0x05C),
    DN(___,0,0x05C),
    DN(___,0,0x05C),
    DN(___,0,0x05C),
    DN(___,0,0x05C),
    DN(___,0,0x05C),
    DN(___,0,0x05C),
    DN(___,0,0x05C),
    DN(___,0,0x05C),
    DN(___,0,0x05C),
    DN(___,0,0x05C),
    DN(___,0,0x05C),
    DN(___,0,0x05C),
    DN(___,0,0x05C),
    DN(E_4,3,0x05C),
    DN(___,0,0x05C),
    DN(___,0,0x05C),
    DN(___,0,0x05C),
    DN(___,0,0x05C),
    DN(___,0,0x05C),
    DN(___,0,0x05C),
    DN(___,0,0x05C),
    DN(___,0,0x05C),
    DN(___,0,0x05C),
    DN(___,0,0x05C),
    DN(___,0,0x05C),
    DN(___,0,0x05C),
    DN(___,0,0x05C),
    DN(___,0,0x05C),
    DN(___,0,0x05C),
    DN(C_4,3,0x05C),
    DN(___,0,0x05C),
    DN(___,0,0x05C),
    DN(___,0,0x05C),
    DN(___,0,0x05C),
    DN(___,0,0x05C),
    DN(___,0,0x05C),
    DN(___,0,0x05C),
    DN(___,0,0x05C),
    DN(___,0,0x05C),
    DN(___,0,0x05C),
    DN(___,0,0x05C),
    DN(___,0,0x05C),
    DN(___,0,0x05C),
    DN(___,0,0x05C),
    DN(___,0,0x05C),
};
static const unsigned char P16[] = {
    DN(G_7,2,0x000),
    DN(___,0,0x000),
    DN(G_7,2,0x000),
    DN(___,0,0x000),
    DN(E_5,3,0x000),
    DN(___,0,0x000),
    DN(G_7,2,0x000),
    DN(G_7,2,0x000),
    DN(G_7,2,0x000),
    DN(G_7,2,0x000),
    DN(G_7,2,0x000),
    DN(___,0,0x000),
    DN(E_5,3,0x000),
    DN(___,0,0x000),
    DN(G_7,2,0x000),
    DN(___,0,0x000),
    DN(G_7,2,0x000),
    DN(___,0,0x000),
    DN(G_7,2,0x000),
    DN(___,0,0x000),
    DN(E_5,3,0x000),
    DN(___,0,0x000),
    DN(G_7,2,0x000),
    DN(___,0,0x000),
    DN(G_7,2,0x000),
    DN(___,0,0x000),
    DN(G_7,2,0x000),
    DN(G_7,2,0x000),
    DN(E_5,3,0x000),
    DN(___,0,0x000),
    DN(G_7,2,0x000),
    DN(___,0,0x000),
    DN(G_7,2,0x000),
    DN(___,0,0x000),
    DN(G_7,2,0x000),
    DN(___,0,0x000),
    DN(E_5,3,0x000),
    DN(___,0,0x000),
    DN(G_7,2,0x000),
    DN(G_7,2,0x000),
    DN(G_7,2,0x000),
    DN(G_7,2,0x000),
    DN(G_7,2,0x000),
    DN(___,0,0x000),
    DN(E_5,3,0x000),
    DN(___,0,0x000),
    DN(G_7,2,0x000),
    DN(___,0,0x000),
    DN(G_7,2,0x000),
    DN(___,0,0x000),
    DN(G_7,2,0x000),
    DN(___,0,0x000),
    DN(E_5,3,0x000),
    DN(___,0,0x000),
    DN(G_7,2,0x000),
    DN(___,0,0x000),
    DN(G_7,2,0x000),
    DN(___,0,0x000),
    DN(G_7,2,0x000),
    DN(G_7,2,0x000),
    DN(E_5,3,0x000),
    DN(___,0,0x000),
    DN(G_7,2,0x000),
    DN(___,0,0x000),
};
static const unsigned char P8[] = {
    DN(___,0,0x05C),
    DN(___,0,0xC07),
    DN(___,0,0xC05),
    DN(___,0,0xC04),
    DN(___,0,0xC03),
    DN(___,0,0xC02),
    DN(___,0,0xC01),
    DN(___,0,0xE00),
    DN(___,0,0x000),
    DN(___,0,0x000),
    DN(___,0,0x000),
    DN(___,0,0x000),
    DN(___,0,0x000),
    DN(___,0,0x000),
    DN(___,0,0x000),
    DN(___,0,0x000),
    DN(___,0,0x000),
    DN(___,0,0x000),
    DN(___,0,0x000),
    DN(___,0,0x000),
    DN(___,0,0x000),
    DN(___,0,0x000),
    DN(___,0,0x000),
    DN(___,0,0x000),
    DN(___,0,0x000),
    DN(___,0,0x000),
    DN(___,0,0x000),
    DN(___,0,0x000),
    DN(___,0,0x000),
    DN(___,0,0x000),
    DN(___,0,0x000),
    DN(___,0,0x000),
    DN(___,0,0x000),
    DN(___,0,0x000),
    DN(___,0,0x000),
    DN(___,0,0x000),
    DN(___,0,0x000),
    DN(___,0,0x000),
    DN(___,0,0x000),
    DN(___,0,0x000),
    DN(___,0,0x000),
    DN(___,0,0x000),
    DN(___,0,0x000),
    DN(___,0,0x000),
    DN(___,0,0x000),
    DN(___,0,0x000),
    DN(___,0,0x000),
    DN(___,0,0x000),
    DN(___,0,0x000),
    DN(___,0,0x000),
    DN(___,0,0x000),
    DN(___,0,0x000),
    DN(___,0,0x000),
    DN(___,0,0x000),
    DN(___,0,0x000),
    DN(___,0,0x000),
    DN(___,0,0x000),
    DN(___,0,0x000),
    DN(___,0,0x000),
    DN(___,0,0x000),
    DN(___,0,0x000),
    DN(___,0,0x000),
    DN(___,0,0x000),
    DN(___,0,0x000),
};
static const unsigned char P17[] = {
    DN(___,0,0x000),
    DN(___,0,0x000),
    DN(___,0,0x000),
    DN(___,0,0x000),
    DN(___,0,0x000),
    DN(___,0,0x000),
    DN(___,0,0x000),
    DN(___,0,0x000),
    DN(G_7,1,0x000),
    DN(___,0,0x000),
    DN(___,0,0x000),
    DN(___,0,0x000),
    DN(___,0,0x000),
    DN(___,0,0x000),
    DN(___,0,0x000),
    DN(___,0,0xD01),
    DN(___,0,0x000),
    DN(___,0,0x000),
    DN(___,0,0x000),
    DN(___,0,0x000),
    DN(___,0,0x000),
    DN(___,0,0x000),
    DN(___,0,0x000),
    DN(___,0,0x000),
    DN(___,0,0x000),
    DN(___,0,0x000),
    DN(___,0,0x000),
    DN(___,0,0x000),
    DN(___,0,0x000),
    DN(___,0,0x000),
    DN(___,0,0x000),
    DN(___,0,0x000),
    DN(___,0,0x000),
    DN(___,0,0x000),
    DN(___,0,0x000),
    DN(___,0,0x000),
    DN(___,0,0x000),
    DN(___,0,0x000),
    DN(___,0,0x000),
    DN(___,0,0x000),
    DN(___,0,0x000),
    DN(___,0,0x000),
    DN(___,0,0x000),
    DN(___,0,0x000),
    DN(___,0,0x000),
    DN(___,0,0x000),
    DN(___,0,0x000),
    DN(___,0,0x000),
    DN(___,0,0x000),
    DN(___,0,0x000),
    DN(___,0,0x000),
    DN(___,0,0x000),
    DN(___,0,0x000),
    DN(___,0,0x000),
    DN(___,0,0x000),
    DN(___,0,0x000),
    DN(___,0,0x000),
    DN(___,0,0x000),
    DN(___,0,0x000),
    DN(___,0,0x000),
    DN(___,0,0x000),
    DN(___,0,0x000),
    DN(___,0,0x000),
    DN(___,0,0x000),
};
static const unsigned char P9[] = {
    DN(C_6,4,0xC1F),
    DN(___,0,0x000),
    DN(C_6,4,0x000),
    DN(___,0,0x000),
    DN(C_6,4,0x000),
    DN(___,0,0x000),
    DN(C_6,4,0x000),
    DN(C_6,4,0x000),
    DN(___,0,0x000),
    DN(C_6,4,0x000),
    DN(C_6,4,0x000),
    DN(___,0,0x000),
    DN(C_6,4,0x000),
    DN(C_6,4,0x000),
    DN(___,0,0x000),
    DN(C_6,4,0x000),
    DN(C_6,4,0x000),
    DN(___,0,0x000),
    DN(B_5,4,0x000),
    DN(___,0,0x000),
    DN(___,0,0x000),
    DN(B_5,4,0xC17),
    DN(B_5,4,0xC13),
    DN(___,0,0x000),
    DN(B_5,4,0xC1F),
    DN(B_5,4,0x000),
    DN(B_5,4,0xC15),
    DN(B_5,4,0xC1F),
    DN(B_5,4,0x000),
    DN(B_5,4,0xC17),
    DN(B_5,4,0xC19),
    DN(B_5,4,0xC15),
    DN(C_6,4,0xC1F),
    DN(___,0,0x000),
    DN(C_6,4,0x000),
    DN(___,0,0x000),
    DN(C_6,4,0x000),
    DN(___,0,0x000),
    DN(C_6,4,0x000),
    DN(C_6,4,0x000),
    DN(___,0,0x000),
    DN(C_6,4,0x000),
    DN(C_6,4,0x000),
    DN(___,0,0x000),
    DN(C_6,4,0x000),
    DN(C_6,4,0x000),
    DN(___,0,0x000),
    DN(C_6,4,0x000),
    DN(C_6,4,0x000),
    DN(___,0,0x000),
    DN(D_6,4,0x000),
    DN(___,0,0x000),
    DN(___,0,0x000),
    DN(D_6,4,0xC11),
    DN(D_6,4,0x000),
    DN(___,0,0x000),
    DN(D_6,4,0xC1F),
    DN(D_6,4,0x000),
    DN(D_6,4,0xC15),
    DN(D_6,4,0xC1F),
    DN(D_6,4,0x000),
    DN(D_6,4,0xC15),
    DN(D_6,4,0xC17),
    DN(D_6,4,0xC13),
};
static const unsigned char P12[] = {
    DN(___,0,0xE00),
    DN(___,0,0x000),
    DN(C_4,1,0x000),
    DN(___,0,0x000),
    DN(___,0,0xE00),
    DN(___,0,0x000),
    DN(C_4,1,0x000),
    DN(___,0,0x000),
    DN(___,0,0xE00),
    DN(___,0,0x000),
    DN(C_4,1,0x000),
    DN(___,0,0x000),
    DN(___,0,0xE00),
    DN(___,0,0x000),
    DN(C_4,1,0x000),
    DN(___,0,0x000),
    DN(___,0,0xE00),
    DN(___,0,0x000),
    DN(G_3,1,0x000),
    DN(___,0,0x000),
    DN(___,0,0xE00),
    DN(___,0,0x000),
    DN(G_3,1,0x000),
    DN(___,0,0x000),
    DN(___,0,0xE00),
    DN(___,0,0x000),
    DN(G_3,1,0x000),
    DN(___,0,0x000),
    DN(___,0,0xE00),
    DN(___,0,0x000),
    DN(G_3,1,0x000),
    DN(___,0,0x000),
    DN(___,0,0xE00),
    DN(___,0,0x000),
    DN(A_3,1,0x000),
    DN(___,0,0x000),
    DN(___,0,0xE00),
    DN(___,0,0x000),
    DN(A_3,1,0x000),
    DN(___,0,0x000),
    DN(___,0,0xE00),
    DN(___,0,0x000),
    DN(A_3,1,0x000),
    DN(___,0,0x000),
    DN(___,0,0xE00),
    DN(___,0,0x000),
    DN(A_3,1,0x000),
    DN(___,0,0x000),
    DN(___,0,0xE00),
    DN(___,0,0x000),
    DN(F_3,1,0x000),
    DN(___,0,0x000),
    DN(___,0,0xE00),
    DN(___,0,0x000),
    DN(F_3,1,0x000),
    DN(___,0,0x000),
    DN(___,0,0xE00),
    DN(___,0,0x000),
    DN(F_3,1,0x000),
    DN(___,0,0x000),
    DN(___,0,0xE00),
    DN(___,0,0x000),
    DN(F_3,1,0x000),
    DN(___,0,0x000),
};
static const unsigned char P18[] = {
    DN(D_7,2,0x000),
    DN(___,0,0x000),
    DN(G_7,2,0x000),
    DN(___,0,0x000),
    DN(E_5,3,0x000),
    DN(___,0,0x000),
    DN(G_7,2,0x000),
    DN(G_7,2,0x000),
    DN(G_7,2,0x000),
    DN(G_7,2,0x000),
    DN(D_7,2,0x000),
    DN(___,0,0x000),
    DN(E_5,3,0x000),
    DN(___,0,0x000),
    DN(D_7,2,0x000),
    DN(___,0,0x000),
    DN(D_7,2,0x000),
    DN(___,0,0x000),
    DN(D_7,2,0x000),
    DN(___,0,0x000),
    DN(E_5,3,0x000),
    DN(___,0,0x000),
    DN(D_7,2,0x000),
    DN(___,0,0x000),
    DN(G_7,2,0x000),
    DN(___,0,0x000),
    DN(D_7,2,0x000),
    DN(G_7,2,0x000),
    DN(E_5,3,0x000),
    DN(___,0,0x000),
    DN(D_7,2,0x000),
    DN(___,0,0x000),
    DN(D_7,2,0x000),
    DN(___,0,0x000),
    DN(G_7,2,0x000),
    DN(___,0,0x000),
    DN(E_5,3,0x000),
    DN(___,0,0x000),
    DN(G_7,2,0x000),
    DN(G_7,2,0x000),
    DN(G_7,2,0x000),
    DN(G_7,2,0x000),
    DN(D_7,2,0x000),
    DN(___,0,0x000),
    DN(E_5,3,0x000),
    DN(___,0,0x000),
    DN(D_7,2,0x000),
    DN(___,0,0x000),
    DN(D_7,2,0x000),
    DN(___,0,0x000),
    DN(G_7,2,0x000),
    DN(___,0,0x000),
    DN(E_5,3,0x000),
    DN(___,0,0x000),
    DN(D_7,2,0x000),
    DN(___,0,0x000),
    DN(G_7,2,0x000),
    DN(___,0,0x000),
    DN(D_7,2,0x000),
    DN(G_7,2,0x000),
    DN(E_5,3,0x000),
    DN(___,0,0x000),
    DN(D_7,2,0x000),
    DN(___,0,0x000),
};
static const unsigned char P10[] = {
    DN(C_6,4,0xC1F),
    DN(___,0,0x000),
    DN(C_6,4,0x000),
    DN(___,0,0x000),
    DN(C_6,4,0x000),
    DN(___,0,0x000),
    DN(C_6,4,0x000),
    DN(C_6,4,0x000),
    DN(___,0,0x000),
    DN(C_6,4,0x000),
    DN(C_6,4,0x000),
    DN(___,0,0x000),
    DN(C_6,4,0x000),
    DN(C_6,4,0x000),
    DN(___,0,0x000),
    DN(C_6,4,0x000),
    DN(C_6,4,0x000),
    DN(___,0,0x000),
    DN(B_5,4,0x000),
    DN(___,0,0x000),
    DN(___,0,0x000),
    DN(B_5,4,0xC17),
    DN(B_5,4,0xC13),
    DN(___,0,0x000),
    DN(B_5,4,0xC1F),
    DN(B_5,4,0x000),
    DN(B_5,4,0xC15),
    DN(B_5,4,0xC1F),
    DN(B_5,4,0x000),
    DN(B_5,4,0xC17),
    DN(B_5,4,0xC19),
    DN(B_5,4,0xC15),
    DN(C_6,4,0xC1F),
    DN(___,0,0x000),
    DN(C_6,4,0x000),
    DN(___,0,0x000),
    DN(C_6,4,0x000),
    DN(___,0,0x000),
    DN(C_6,4,0x000),
    DN(C_6,4,0x000),
    DN(___,0,0x000),
    DN(C_6,4,0x000),
    DN(C_6,4,0x000),
    DN(___,0,0x000),
    DN(C_6,4,0x000),
    DN(C_6,4,0x000),
    DN(___,0,0x000),
    DN(C_6,4,0x000),
    DN(C_6,4,0x000),
    DN(___,0,0x000),
    DN(D_6,4,0x000),
    DN(___,0,0x000),
    DN(___,0,0x000),
    DN(D_6,4,0xC11),
    DN(D_6,4,0x000),
    DN(___,0,0x000),
    DN(D_6,4,0xC1F),
    DN(D_6,4,0x000),
    DN(D_6,4,0xC15),
    DN(E_6,4,0xC1F),
    DN(E_6,4,0x000),
    DN(E_6,4,0xC15),
    DN(E_6,4,0xC17),
    DN(E_6,4,0xC13),
};
static const unsigned char P2[] = {
    DN(C_7,2,0xC11),
    DN(___,0,0x000),
    DN(___,0,0x000),
    DN(C_7,2,0xC11),
    DN(___,0,0x000),
    DN(___,0,0x000),
    DN(C_7,2,0xC11),
    DN(___,0,0x000),
    DN(___,0,0x000),
    DN(C_7,2,0xC14),
    DN(___,0,0x000),
    DN(___,0,0x000),
    DN(C_7,2,0xC14),
    DN(___,0,0x000),
    DN(___,0,0x000),
    DN(C_7,2,0xC14),
    DN(___,0,0x000),
    DN(___,0,0x000),
    DN(___,0,0xC07),
    DN(___,0,0x000),
    DN(___,0,0x000),
    DN(___,0,0xC07),
    DN(___,0,0x000),
    DN(___,0,0x000),
    DN(B_6,2,0xC09),
    DN(___,0,0x000),
    DN(___,0,0x000),
    DN(B_6,2,0xC09),
    DN(___,0,0x000),
    DN(___,0,0x000),
    DN(B_6,2,0xC0A),
    DN(___,0,0x000),
    DN(C_7,2,0xC0A),
    DN(___,0,0x000),
    DN(___,0,0x000),
    DN(C_7,2,0xC1B),
    DN(___,0,0x000),
    DN(___,0,0x000),
    DN(C_7,2,0xC1B),
    DN(___,0,0x000),
    DN(___,0,0x000),
    DN(C_7,2,0xC0C),
    DN(___,0,0x000),
    DN(___,0,0x000),
    DN(C_7,2,0xC0C),
    DN(___,0,0x000),
    DN(___,0,0x000),
    DN(C_7,2,0xC0C),
    DN(___,0,0x000),
    DN(___,0,0x000),
    DN(D_7,2,0xC1E),
    DN(___,0,0x000),
    DN(___,0,0x000),
    DN(D_7,2,0xC1E),
    DN(___,0,0x000),
    DN(___,0,0x000),
    DN(D_7,2,0xC1F),
    DN(___,0,0x000),
    DN(___,0,0x000),
    DN(D_7,2,0xC1F),
    DN(___,0,0x000),
    DN(___,0,0x000),
    DN(D_7,2,0xC1F),
    DN(___,0,0x000),
};
static const unsigned char P3[] = {
    DN(C_7,2,0x000),
    DN(___,0,0x000),
    DN(___,0,0x000),
    DN(C_7,2,0x000),
    DN(___,0,0x000),
    DN(___,0,0x000),
    DN(C_7,2,0x000),
    DN(___,0,0x000),
    DN(___,0,0x000),
    DN(C_7,2,0x000),
    DN(___,0,0x000),
    DN(___,0,0x000),
    DN(C_7,2,0x000),
    DN(___,0,0x000),
    DN(___,0,0x000),
    DN(C_7,2,0x000),
    DN(___,0,0x000),
    DN(___,0,0x000),
    DN(B_6,2,0x000),
    DN(___,0,0x000),
    DN(___,0,0x000),
    DN(B_6,2,0x000),
    DN(___,0,0x000),
    DN(___,0,0x000),
    DN(B_6,2,0x000),
    DN(___,0,0x000),
    DN(___,0,0x000),
    DN(B_6,2,0x000),
    DN(___,0,0x000),
    DN(___,0,0x000),
    DN(B_6,2,0x000),
    DN(___,0,0x000),
    DN(C_7,2,0x000),
    DN(___,0,0x000),
    DN(___,0,0x000),
    DN(C_7,2,0x000),
    DN(___,0,0x000),
    DN(___,0,0x000),
    DN(C_7,2,0x000),
    DN(___,0,0x000),
    DN(___,0,0x000),
    DN(C_7,2,0x000),
    DN(___,0,0x000),
    DN(___,0,0x000),
    DN(C_7,2,0x000),
    DN(___,0,0x000),
    DN(___,0,0x000),
    DN(C_7,2,0x000),
    DN(___,0,0x000),
    DN(___,0,0x000),
    DN(D_7,2,0x000),
    DN(___,0,0x000),
    DN(___,0,0x000),
    DN(D_7,2,0x000),
    DN(___,0,0x000),
    DN(___,0,0x000),
    DN(D_7,2,0x000),
    DN(___,0,0x000),
    DN(___,0,0x000),
    DN(E_7,2,0x000),
    DN(___,0,0x000),
    DN(___,0,0x000),
    DN(E_7,2,0x000),
    DN(___,0,0x000),
};
static const unsigned char P4[] = {
    DN(C_7,2,0x000),
    DN(___,0,0x000),
    DN(___,0,0x000),
    DN(C_7,2,0x000),
    DN(___,0,0x000),
    DN(___,0,0x000),
    DN(C_7,2,0x000),
    DN(___,0,0x000),
    DN(___,0,0x000),
    DN(C_7,2,0x000),
    DN(___,0,0x000),
    DN(___,0,0x000),
    DN(C_7,2,0x000),
    DN(___,0,0x000),
    DN(___,0,0x000),
    DN(C_7,2,0x000),
    DN(___,0,0x000),
    DN(___,0,0x000),
    DN(B_6,2,0x000),
    DN(___,0,0x000),
    DN(___,0,0x000),
    DN(B_6,2,0x000),
    DN(___,0,0x000),
    DN(___,0,0x000),
    DN(B_6,2,0x000),
    DN(___,0,0x000),
    DN(___,0,0x000),
    DN(B_6,2,0x000),
    DN(___,0,0x000),
    DN(___,0,0x000),
    DN(B_6,2,0x000),
    DN(___,0,0x000),
    DN(C_7,2,0x000),
    DN(___,0,0x000),
    DN(___,0,0x000),
    DN(C_7,2,0x000),
    DN(___,0,0x000),
    DN(___,0,0x000),
    DN(C_7,2,0x000),
    DN(___,0,0x000),
    DN(___,0,0x000),
    DN(C_7,2,0x000),
    DN(___,0,0x000),
    DN(___,0,0x000),
    DN(C_7,2,0x000),
    DN(___,0,0x000),
    DN(___,0,0x000),
    DN(C_7,2,0x000),
    DN(___,0,0x000),
    DN(___,0,0x000),
    DN(D_7,2,0x000),
    DN(___,0,0x000),
    DN(___,0,0x000),
    DN(D_7,2,0x000),
    DN(___,0,0x000),
    DN(___,0,0x000),
    DN(D_7,2,0x000),
    DN(___,0,0x000),
    DN(___,0,0x000),
    DN(D_7,2,0x000),
    DN(___,0,0x000),
    DN(___,0,0x000),
    DN(D_7,2,0x000),
    DN(___,0,0x000),
};

static const unsigned char itSquareSP2[] = {
    DN(___,0,0x000),
    DN(___,0,0x000),
    DN(___,0,0x000),
    DN(___,0,0x000),
    DN(___,0,0x000),
    DN(___,0,0x000),
    DN(___,0,0x000),
    DN(___,0,0x000),
    DN(___,0,0x000),
    DN(___,0,0x000),
    DN(___,0,0x000),
    DN(___,0,0x000),
    DN(___,0,0x000),
    DN(___,0,0x000),
    DN(___,0,0x000),
    DN(___,0,0x000),
    DN(___,0,0x000),
    DN(___,0,0x000),
    DN(___,0,0x000),
    DN(___,0,0x000),
    DN(___,0,0x000),
    DN(___,0,0x000),
    DN(___,0,0x000),
    DN(___,0,0x000),
    DN(___,0,0x000),
    DN(___,0,0x000),
    DN(___,0,0x000),
    DN(___,0,0x000),
    DN(___,0,0x000),
    DN(___,0,0x000),
    DN(___,0,0x000),
    DN(___,1,0x000),
};
static const unsigned char itSquareSP3[] = {
    DN(___,0,0x940),
    DN(___,0,0x940),
    DN(___,0,0x980),
    DN(___,0,0x980),
    DN(___,0,0x9C0),
    DN(___,0,0x9C0),
    DN(___,0,0x980),
    DN(___,0,0x980),
    DN(___,0,0x940),
    DN(___,0,0x940),
    DN(___,0,0x980),
    DN(___,0,0x980),
    DN(___,0,0x9C0),
    DN(___,0,0x9C0),
    DN(___,0,0x980),
    DN(___,0,0x980),
    DN(___,0,0x940),
    DN(___,0,0x940),
    DN(___,0,0x980),
    DN(___,0,0x980),
    DN(___,0,0x9C0),
    DN(___,0,0x9C0),
    DN(___,0,0x980),
    DN(___,0,0x980),
    DN(___,0,0x940),
    DN(___,0,0x940),
    DN(___,0,0x980),
    DN(___,0,0x980),
    DN(___,0,0x9C0),
    DN(___,0,0x9C0),
    DN(___,0,0x980),
    DN(___,1,0x980),
};
static const unsigned char itSquareSP4[] = {
    DN(___,0,0x980),
    DN(___,0,0x940),
    DN(___,0,0x900),
    DN(___,3,0x000),
    DN(___,0,0x000),
    DN(___,0,0x000),
    DN(___,0,0x000),
    DN(___,0,0x000),
    DN(___,0,0x000),
    DN(___,0,0x000),
    DN(___,0,0x000),
    DN(___,0,0x000),
    DN(___,0,0x000),
    DN(___,0,0x000),
    DN(___,0,0x000),
    DN(___,0,0x000),
    DN(___,0,0x000),
    DN(___,0,0x000),
    DN(___,0,0x000),
    DN(___,0,0x000),
    DN(___,0,0x000),
    DN(___,0,0x000),
    DN(___,0,0x000),
    DN(___,0,0x000),
    DN(___,0,0x000),
    DN(___,0,0x000),
    DN(___,0,0x000),
    DN(___,0,0x000),
    DN(___,0,0x000),
    DN(___,0,0x000),
    DN(___,0,0x000),
    DN(___,1,0x000),
};
static const unsigned char itNoiseSP1[] = {
    DN(6,0,0x000),
    DN(36,0,0x000),
    DN(35,0,0x000),
    DN(36,0,0x000),
    DN(52,0,0x000),
    DN(36,0,0x000),
    DN(36,0,0x000),
    DN(36,0,0x000),
    DN(36,0,0x000),
    DN(36,0,0x000),
    DN(36,0,0x000),
    DN(36,0,0x000),
    DN(36,0,0x000),
    DN(36,0,0x000),
    DN(36,0,0x000),
    DN(36,0,0x000),
    DN(___,16,0x000),
    DN(___,0,0x000),
    DN(___,0,0x000),
    DN(___,0,0x000),
    DN(___,0,0x000),
    DN(___,0,0x000),
    DN(___,0,0x000),
    DN(___,0,0x000),
    DN(___,0,0x000),
    DN(___,0,0x000),
    DN(___,0,0x000),
    DN(___,0,0x000),
    DN(___,0,0x000),
    DN(___,0,0x000),
    DN(___,0,0x000),
    DN(___,1,0x000),
};
static const unsigned char itNoiseSP3[] = {
    DN(60,0,0x000),
    DN(60,2,0x000),
    DN(___,0,0x000),
    DN(___,0,0x000),
    DN(___,0,0x000),
    DN(___,0,0x000),
    DN(___,0,0x000),
    DN(___,0,0x000),
    DN(___,0,0x000),
    DN(___,0,0x000),
    DN(___,0,0x000),
    DN(___,0,0x000),
    DN(___,0,0x000),
    DN(___,0,0x000),
    DN(___,0,0x000),
    DN(___,0,0x000),
    DN(___,0,0x000),
    DN(___,0,0x000),
    DN(___,0,0x000),
    DN(___,0,0x000),
    DN(___,0,0x000),
    DN(___,0,0x000),
    DN(___,0,0x000),
    DN(___,0,0x000),
    DN(___,0,0x000),
    DN(___,0,0x000),
    DN(___,0,0x000),
    DN(___,0,0x000),
    DN(___,0,0x000),
    DN(___,0,0x000),
    DN(___,0,0x000),
    DN(___,1,0x000),
};
static const unsigned char* const order1[] = {P0,P0,P0,P0,P14,P0,P0,P0,P0,P14,P14,P2,P3,P4,P3,P11};
static const unsigned char* const order2[] = {P6,P6,P7,P7,P8,P9,P10,P9,P10,P9,P10,P9,P10,P7,P7,P8};
static const unsigned char* const order3[] = {P11,P11,P11,P11,P11,P12,P12,P12,P12,P12,P12,P12,P12,P11,P11,P14};
static const unsigned char* const order4[] = {P14,P15,P16,P16,P17,P18,P18,P18,P18,P18,P18,P18,P18,P14,P14,P14};

static const hUGEDutyInstr_t duty_instruments[] = {
    {8,2,242,0,128},
    {8,39,193,itSquareSP2,128},
    {8,127,88,itSquareSP3,128},
    {8,191,241,itSquareSP4,128},
    {8,127,66,0,128},
};
static const hUGEWaveInstr_t wave_instruments[] = {
    {63,32,0,0,128},
};
static const hUGENoiseInstr_t noise_instruments[] = {
    {11,itNoiseSP1,63,0,0},
    {248,0,124,0,0},
    {177,itNoiseSP3,0,0,0},
};

static const unsigned char waves[] = {
    34,34,34,34,34,34,34,34,221,221,221,221,221,221,221,221,
};

const hUGESong_t stereomadness = {6, &order_cnt, order1, order2, order3,order4, duty_instruments, wave_instruments, noise_instruments, NULL, waves};
